<svg width="224" height="115" viewBox="0 0 224 115" fill="none" xmlns="http://www.w3.org/2000/svg">
<rect x="0.4" y="0.4" width="222.417" height="114.2" rx="11.6" fill="url(#paint0_linear_2810_248)" stroke="#7CB7A6" stroke-width="0.8"/>
<mask id="mask0_2810_248" style="mask-type:alpha" maskUnits="userSpaceOnUse" x="0" y="0" width="224" height="115">
<rect width="223.217" height="115" rx="12" fill="#875CFF"/>
</mask>
<g mask="url(#mask0_2810_248)">
<rect width="68.6155" height="75.5409" rx="8" transform="matrix(-0.461233 0.887279 -0.932082 -0.362249 200.646 112.236)" fill="url(#paint1_linear_2810_248)"/>
<rect opacity="0.2" width="48.5933" height="50.5504" rx="5" transform="matrix(-0.657954 0.753059 -0.83721 -0.546881 190.958 107.26)" fill="url(#paint2_linear_2810_248)"/>
<path opacity="0.6" d="M281.609 2.76475C281.698 3.75029 281.759 4.74295 281.789 5.7421L281.289 5.75718C281.304 6.24914 281.311 6.74271 281.311 7.2378C281.311 7.73289 281.304 8.22647 281.289 8.71844L281.789 8.73351C281.759 9.73266 281.698 10.7253 281.609 11.7109L281.111 11.6656C281.021 12.65 280.902 13.6271 280.754 14.5964L281.249 14.6718C281.098 15.658 280.918 16.6361 280.71 17.6055L280.221 17.5003C280.013 18.4647 279.777 19.4205 279.512 20.3668L279.994 20.5014C279.726 21.4604 279.43 22.4099 279.106 23.3491L278.633 23.1861C278.312 24.1174 277.963 25.0386 277.588 25.9489L278.051 26.1394C277.672 27.0587 277.266 27.967 276.834 28.8635L276.384 28.6466C275.957 29.5332 275.504 30.4084 275.026 31.2714L275.463 31.5136C274.982 32.3825 274.476 33.2391 273.946 34.0827L273.523 33.8166C272.999 34.6491 272.452 35.469 271.882 36.2754L272.29 36.5641C271.717 37.3741 271.121 38.1706 270.503 38.953L270.111 38.643C269.501 39.4144 268.87 40.1719 268.218 40.915L268.594 41.2449C267.939 41.99 267.264 42.7205 266.569 43.4359L266.21 43.0874C265.525 43.7923 264.82 44.4823 264.096 45.1569L264.437 45.5228C263.712 46.1984 262.968 46.8586 262.205 47.5027L261.883 47.1208C261.132 47.7553 260.363 48.3741 259.577 48.9766L259.881 49.3734C259.095 49.9763 258.291 50.563 257.472 51.1329L257.186 50.7223C256.379 51.2835 255.556 51.8283 254.717 52.3562L254.984 52.7793C254.145 53.3071 253.292 53.818 252.423 54.3114L252.176 53.8768C251.322 54.3627 250.453 54.8316 249.57 55.2828L249.798 55.728C248.916 56.179 248.02 56.6125 247.112 57.028L246.904 56.5733C246.01 56.9825 245.103 57.374 244.184 57.7474L244.373 58.2106C243.455 58.5837 242.526 58.9387 241.585 59.2752L241.417 58.8045C240.491 59.1358 239.554 59.4492 238.606 59.7439L238.755 60.2213C237.809 60.5156 236.853 60.7915 235.888 61.0486L235.759 60.5654C234.808 60.8184 233.849 61.053 232.88 61.2687L232.988 61.7567C232.022 61.9718 231.048 62.1682 230.065 62.3455L229.976 61.8534C229.008 62.0278 228.033 62.1836 227.05 62.3201L227.119 62.8154C226.139 62.9516 225.152 63.0689 224.157 63.1669L224.108 62.6693C223.13 62.7656 222.145 62.8431 221.154 62.9013L221.184 63.4005C220.196 63.4585 219.202 63.4974 218.203 63.5169L218.193 63.017C217.699 63.0267 217.203 63.0315 216.706 63.0315C216.209 63.0315 215.714 63.0267 215.22 63.017L215.21 63.5169C214.211 63.4974 213.217 63.4585 212.229 63.4005L212.258 62.9013C211.267 62.8431 210.283 62.7656 209.305 62.6693L209.256 63.1669C208.261 63.0689 207.274 62.9516 206.294 62.8154L206.363 62.3201C205.38 62.1835 204.404 62.0278 203.437 61.8534L203.348 62.3455C202.365 62.1682 201.391 61.9718 200.424 61.7567L200.533 61.2687C199.564 61.053 198.604 60.8184 197.654 60.5654L197.525 61.0486C196.56 60.7915 195.604 60.5156 194.658 60.2213L194.807 59.7439C193.859 59.4492 192.922 59.1358 191.996 58.8045L191.828 59.2752C190.887 58.9387 189.958 58.5837 189.04 58.2106L189.229 57.7474C188.31 57.374 187.403 56.9825 186.509 56.5733L186.301 57.028C185.393 56.6125 184.497 56.179 183.615 55.728L183.843 55.2828C182.96 54.8316 182.091 54.3627 181.237 53.8768L180.989 54.3114C180.121 53.818 179.268 53.3071 178.429 52.7793L178.696 52.3562C177.857 51.8284 177.034 51.2835 176.227 50.7223L175.941 51.1329C175.122 50.563 174.318 49.9763 173.532 49.3734L173.836 48.9766C173.05 48.3741 172.281 47.7553 171.53 47.1208L171.208 47.5027C170.445 46.8586 169.701 46.1984 168.976 45.5228L169.317 45.157C168.593 44.4823 167.888 43.7923 167.203 43.0874L166.844 43.4359C166.149 42.7205 165.474 41.99 164.819 41.2449L165.195 40.915C164.543 40.1719 163.911 39.4144 163.302 38.643L162.91 38.953C162.292 38.1706 161.696 37.3741 161.123 36.5641L161.531 36.2754C160.961 35.469 160.414 34.6491 159.89 33.8166L159.467 34.0827C158.937 33.2391 158.431 32.3825 157.949 31.5136L158.387 31.2714C157.909 30.4084 157.456 29.5332 157.029 28.6466L156.579 28.8635C156.147 27.967 155.741 27.0587 155.362 26.1394L155.825 25.9489C155.449 25.0386 155.101 24.1174 154.78 23.1861L154.307 23.3491C153.983 22.4099 153.687 21.4604 153.419 20.5013L153.901 20.3668C153.636 19.4205 153.4 18.4647 153.192 17.5003L152.703 17.6055C152.495 16.6361 152.315 15.658 152.164 14.6718L152.659 14.5964C152.511 13.6271 152.392 12.6499 152.302 11.6656L151.804 11.7109C151.714 10.7253 151.654 9.73265 151.624 8.7335L152.124 8.71843C152.109 8.22646 152.102 7.73289 152.102 7.2378C152.102 6.74271 152.109 6.24913 152.124 5.75716L151.624 5.74209C151.654 4.74294 151.714 3.75027 151.804 2.76473L152.302 2.81001C152.392 1.82564 152.511 0.848476 152.659 -0.120827L152.164 -0.196243C152.315 -1.18242 152.495 -2.16055 152.703 -3.12994L153.192 -3.0247C153.4 -3.98913 153.636 -4.94487 153.901 -5.89123L153.419 -6.02575C153.687 -6.98482 153.983 -7.93431 154.307 -8.87352L154.78 -8.71052C155.101 -9.64181 155.449 -10.563 155.825 -11.4733L155.362 -11.6638C155.741 -12.5831 156.147 -13.4914 156.579 -14.3879L157.029 -14.171C157.456 -15.0576 157.909 -15.9328 158.387 -16.7958L157.949 -17.038C158.431 -17.9069 158.937 -18.7635 159.467 -19.6071L159.89 -19.341C160.414 -20.1735 160.961 -20.9934 161.531 -21.7998L161.123 -22.0885C161.696 -22.8985 162.292 -23.695 162.91 -24.4774L163.302 -24.1674C163.911 -24.9388 164.543 -25.6963 165.195 -26.4394L164.819 -26.7693C165.474 -27.5144 166.149 -28.2449 166.844 -28.9603L167.203 -28.6118C167.888 -29.3167 168.593 -30.0067 169.317 -30.6813L168.976 -31.0472C169.701 -31.7228 170.445 -32.383 171.208 -33.0271L171.53 -32.6452C172.281 -33.2797 173.05 -33.8985 173.836 -34.501L173.532 -34.8978C174.318 -35.5007 175.122 -36.0874 175.941 -36.6572L176.227 -36.2467C177.034 -36.8079 177.857 -37.3527 178.696 -37.8806L178.429 -38.3037C179.268 -38.8315 180.121 -39.3424 180.989 -39.8358L181.237 -39.4012C182.091 -39.8871 182.96 -40.3559 183.843 -40.8072L183.615 -41.2524C184.497 -41.7034 185.393 -42.1369 186.301 -42.5524L186.509 -42.0977C187.403 -42.5069 188.31 -42.8984 189.229 -43.2718L189.04 -43.735C189.958 -44.1081 190.887 -44.4631 191.828 -44.7996L191.996 -44.3289C192.922 -44.6602 193.859 -44.9736 194.807 -45.2683L194.658 -45.7457C195.604 -46.04 196.56 -46.3159 197.525 -46.573L197.654 -46.0898C198.604 -46.3428 199.564 -46.5774 200.533 -46.7931L200.424 -47.2811C201.391 -47.4962 202.365 -47.6926 203.348 -47.8699L203.437 -47.3778C204.404 -47.5522 205.38 -47.708 206.363 -47.8445L206.294 -48.3398C207.274 -48.476 208.261 -48.5933 209.256 -48.6913L209.305 -48.1937C210.283 -48.29 211.267 -48.3675 212.258 -48.4257L212.229 -48.9249C213.217 -48.9829 214.211 -49.0218 215.21 -49.0413L215.22 -48.5414C215.714 -48.5511 216.209 -48.5559 216.706 -48.5559C217.203 -48.5559 217.699 -48.5511 218.193 -48.5414L218.203 -49.0413C219.202 -49.0218 220.196 -48.9829 221.184 -48.9249L221.155 -48.4257C222.145 -48.3675 223.13 -48.29 224.108 -48.1937L224.157 -48.6913C225.152 -48.5933 226.139 -48.476 227.119 -48.3398L227.05 -47.8445C228.033 -47.7079 229.008 -47.5522 229.976 -47.3778L230.065 -47.8699C231.048 -47.6926 232.022 -47.4962 232.988 -47.2811L232.88 -46.7931C233.849 -46.5774 234.808 -46.3428 235.759 -46.0898L235.888 -46.573C236.853 -46.3159 237.809 -46.04 238.755 -45.7457L238.606 -45.2683C239.554 -44.9736 240.491 -44.6602 241.417 -44.3289L241.585 -44.7996C242.526 -44.4631 243.455 -44.1081 244.373 -43.735L244.184 -43.2718C245.103 -42.8984 246.01 -42.5069 246.904 -42.0977L247.112 -42.5524C248.02 -42.1369 248.916 -41.7034 249.798 -41.2524L249.57 -40.8072C250.452 -40.356 251.322 -39.8871 252.176 -39.4012L252.423 -39.8358C253.292 -39.3424 254.145 -38.8315 254.984 -38.3037L254.717 -37.8806C255.556 -37.3528 256.379 -36.8079 257.186 -36.2467L257.472 -36.6573C258.291 -36.0874 259.095 -35.5007 259.881 -34.8978L259.577 -34.501C260.363 -33.8985 261.132 -33.2797 261.883 -32.6452L262.205 -33.0271C262.968 -32.383 263.712 -31.7228 264.437 -31.0472L264.096 -30.6814C264.82 -30.0067 265.525 -29.3167 266.21 -28.6118L266.569 -28.9603C267.264 -28.2449 267.939 -27.5144 268.594 -26.7693L268.218 -26.4394C268.87 -25.6963 269.501 -24.9388 270.111 -24.1674L270.503 -24.4774C271.121 -23.695 271.717 -22.8985 272.29 -22.0885L271.882 -21.7998C272.452 -20.9934 272.999 -20.1735 273.523 -19.341L273.946 -19.6071C274.476 -18.7635 274.982 -17.9069 275.463 -17.038L275.026 -16.7958C275.504 -15.9328 275.957 -15.0576 276.384 -14.171L276.834 -14.3879C277.266 -13.4914 277.672 -12.5831 278.051 -11.6638L277.588 -11.4733C277.963 -10.563 278.312 -9.64181 278.633 -8.71051L279.106 -8.87352C279.43 -7.93431 279.726 -6.98482 279.994 -6.02574L279.512 -5.89123C279.777 -4.94487 280.013 -3.98913 280.221 -3.02469L280.71 -3.12994C280.918 -2.16054 281.098 -1.18241 281.249 -0.196232L280.754 -0.120819C280.902 0.848488 281.021 1.82565 281.111 2.81002L281.609 2.76475Z" stroke="#7CB7A6" stroke-dasharray="3 3"/>
<path opacity="0.6" d="M277.899 9.96394C277.984 10.9584 278.041 11.9596 278.07 12.967L277.57 12.9812C277.584 13.4778 277.591 13.9759 277.591 14.4755C277.591 14.9751 277.584 15.4732 277.57 15.9698L278.07 15.984C278.041 16.9914 277.984 17.9926 277.899 18.9871L277.401 18.9445C277.316 19.9381 277.203 20.925 277.062 21.9045L277.557 21.9755C277.414 22.9713 277.243 23.9595 277.045 24.9396L276.555 24.8405C276.358 25.8163 276.133 26.784 275.881 27.7429L276.365 27.8698C276.11 28.8412 275.828 29.8038 275.52 30.7568L275.044 30.6029C274.738 31.5489 274.406 32.4854 274.048 33.4119L274.515 33.592C274.153 34.5275 273.766 35.4529 273.354 36.3673L272.898 36.1619C272.49 37.0674 272.057 37.9622 271.6 38.8458L272.044 39.0755C271.584 39.9653 271.1 40.8436 270.592 41.7099L270.161 41.457C269.659 42.3133 269.133 43.1578 268.586 43.9898L269.003 44.2647C268.453 45.1008 267.88 45.9243 267.286 46.7348L266.883 46.439C266.296 47.2391 265.688 48.0264 265.059 48.8002L265.447 49.1156C264.816 49.8918 264.164 50.6546 263.493 51.4033L263.121 51.0695C262.458 51.8081 261.776 52.5329 261.075 53.2435L261.431 53.5946C260.729 54.3065 260.008 55.004 259.269 55.6867L258.93 55.3194C258.201 55.9925 257.454 56.6511 256.691 57.2947L257.013 57.6771C256.248 58.3212 255.467 58.9502 254.669 59.5637L254.364 59.1673C253.577 59.7721 252.775 60.3616 251.957 60.9354L252.244 61.3448C251.425 61.9187 250.592 62.4769 249.743 63.0188L249.474 62.5975C248.638 63.1317 247.787 63.6501 246.922 64.1522L247.173 64.5846C246.309 65.0864 245.431 65.572 244.54 66.0407L244.307 65.5982C243.429 66.0601 242.538 66.5055 241.635 66.9341L241.849 67.3858C240.947 67.8141 240.033 68.2256 239.106 68.6198L238.911 68.1598C237.998 68.5484 237.073 68.9201 236.138 69.2745L236.316 69.7421C235.382 70.0961 234.437 70.4329 233.482 70.7521L233.324 70.2779C232.383 70.5925 231.432 70.8899 230.471 71.1695L230.611 71.6496C229.652 71.9288 228.683 72.1905 227.706 72.4343L227.585 71.9491C226.622 72.1893 225.651 72.412 224.671 72.6166L224.773 73.106C223.795 73.3103 222.809 73.4967 221.816 73.6649L221.732 73.1719C220.753 73.3377 219.767 73.4856 218.774 73.6153L218.838 74.1111C217.849 74.2403 216.852 74.3515 215.849 74.4444L215.803 73.9465C214.816 74.0379 213.822 74.1115 212.823 74.1666L212.851 74.6659C211.854 74.7209 210.852 74.7579 209.845 74.7764L209.836 74.2764C209.337 74.2856 208.837 74.2902 208.336 74.2902C207.834 74.2902 207.334 74.2856 206.836 74.2764L206.826 74.7764C205.819 74.7579 204.817 74.7209 203.821 74.6659L203.849 74.1666C202.849 74.1115 201.856 74.0379 200.868 73.9465L200.822 74.4444C199.819 74.3515 198.823 74.2403 197.833 74.1111L197.898 73.6153C196.905 73.4856 195.918 73.3377 194.939 73.1719L194.856 73.6649C193.862 73.4967 192.876 73.3103 191.899 73.106L192.001 72.6166C191.021 72.412 190.049 72.1893 189.086 71.9491L188.965 72.4343C187.988 72.1905 187.02 71.9288 186.061 71.6496L186.201 71.1695C185.24 70.8899 184.289 70.5925 183.348 70.2779L183.189 70.7521C182.235 70.4329 181.29 70.0961 180.356 69.7421L180.533 69.2745C179.598 68.9201 178.674 68.5484 177.761 68.1598L177.565 68.6198C176.639 68.2256 175.725 67.8141 174.822 67.3858L175.037 66.9341C174.133 66.5055 173.243 66.0601 172.365 65.5982L172.132 66.0407C171.241 65.572 170.363 65.0864 169.498 64.5846L169.749 64.1522C168.885 63.6501 168.034 63.1317 167.198 62.5975L166.928 63.0188C166.08 62.4769 165.246 61.9187 164.428 61.3448L164.715 60.9354C163.897 60.3616 163.094 59.7721 162.308 59.1673L162.003 59.5637C161.205 58.9502 160.423 58.3212 159.659 57.677L159.981 57.2947C159.217 56.6511 158.471 55.9925 157.742 55.3194L157.403 55.6867C156.663 55.004 155.942 54.3064 155.24 53.5946L155.596 53.2435C154.895 52.5329 154.213 51.8081 153.551 51.0695L153.179 51.4033C152.507 50.6546 151.856 49.8918 151.225 49.1156L151.613 48.8002C150.984 48.0264 150.376 47.2391 149.789 46.439L149.386 46.7348C148.791 45.9243 148.219 45.1008 147.668 44.2647L148.086 43.9898C147.538 43.1578 147.013 42.3133 146.511 41.457L146.08 41.7099C145.572 40.8436 145.087 39.9653 144.627 39.0755L145.071 38.8458C144.614 37.9622 144.181 37.0674 143.773 36.1619L143.317 36.3674C142.905 35.4529 142.518 34.5275 142.157 33.592L142.623 33.4119C142.266 32.4854 141.933 31.5489 141.627 30.6029L141.152 30.7568C140.843 29.8038 140.561 28.8412 140.307 27.8698L140.79 27.743C140.539 26.784 140.314 25.8163 140.117 24.8405L139.627 24.9396C139.428 23.9595 139.257 22.9713 139.115 21.9755L139.61 21.9045C139.469 20.925 139.356 19.9381 139.271 18.9445L138.773 18.9871C138.688 17.9926 138.631 16.9914 138.602 15.9841L139.102 15.9699C139.088 15.4732 139.081 14.9751 139.081 14.4755C139.081 13.9759 139.088 13.4778 139.102 12.9812L138.602 12.967C138.631 11.9597 138.688 10.9585 138.773 9.96397L139.271 10.0066C139.356 9.01292 139.469 8.02603 139.61 7.04651L139.115 6.97551C139.257 5.97975 139.428 4.99152 139.627 4.01142L140.117 4.11056C140.314 3.13475 140.539 2.16706 140.79 1.20809L140.307 1.08126C140.561 0.109806 140.843 -0.852741 141.152 -1.80576L141.627 -1.65188C141.933 -2.59782 142.266 -3.53435 142.623 -4.46083L142.157 -4.64096C142.518 -5.5765 142.905 -6.50183 143.317 -7.41632L143.773 -7.21088C144.181 -8.11637 144.614 -9.01121 145.071 -9.89478L144.627 -10.1245C145.087 -11.0142 145.572 -11.8926 146.08 -12.7589L146.511 -12.506C147.013 -13.3623 147.538 -14.2067 148.086 -15.0388L147.668 -15.3137C148.219 -16.1497 148.791 -16.9733 149.386 -17.7837L149.789 -17.488C150.376 -18.2881 150.984 -19.0753 151.613 -19.8492L151.225 -20.1646C151.856 -20.9408 152.507 -21.7035 153.179 -22.4523L153.551 -22.1185C154.213 -22.857 154.895 -23.5819 155.596 -24.2925L155.24 -24.6436C155.942 -25.3554 156.663 -26.053 157.403 -26.7357L157.742 -26.3684C158.471 -27.0415 159.217 -27.7001 159.981 -28.3437L159.659 -28.726C160.423 -29.3701 161.205 -29.9992 162.003 -30.6126L162.308 -30.2163C163.094 -30.821 163.897 -31.4106 164.715 -31.9844L164.428 -32.3937C165.246 -32.9676 166.08 -33.5258 166.928 -34.0678L167.198 -33.6464C168.034 -34.1807 168.885 -34.6991 169.749 -35.2011L169.498 -35.6335C170.363 -36.1354 171.241 -36.6209 172.132 -37.0897L172.365 -36.6472C173.243 -37.1091 174.133 -37.5545 175.037 -37.9831L174.822 -38.4348C175.725 -38.863 176.639 -39.2745 177.565 -39.6688L177.761 -39.2087C178.674 -39.5973 179.598 -39.9691 180.533 -40.3235L180.356 -40.791C181.29 -41.1451 182.235 -41.4819 183.189 -41.8011L183.348 -41.3269C184.289 -41.6415 185.24 -41.9388 186.201 -42.2185L186.061 -42.6986C187.02 -42.9778 187.988 -43.2395 188.965 -43.4832L189.086 -42.9981C190.049 -43.2383 191.021 -43.4609 192.001 -43.6656L191.898 -44.155C192.876 -44.3593 193.862 -44.5457 194.856 -44.7139L194.939 -44.2209C195.918 -44.3866 196.905 -44.5346 197.898 -44.6642L197.833 -45.16C198.823 -45.2893 199.819 -45.4005 200.822 -45.4934L200.868 -44.9955C201.856 -45.0869 202.849 -45.1604 203.848 -45.2156L203.821 -45.7149C204.817 -45.7699 205.819 -45.8068 206.826 -45.8253L206.836 -45.3254C207.334 -45.3346 207.834 -45.3392 208.336 -45.3392C208.837 -45.3392 209.337 -45.3346 209.836 -45.3254L209.845 -45.8253C210.852 -45.8068 211.854 -45.7699 212.851 -45.7149L212.823 -45.2156C213.822 -45.1604 214.816 -45.0869 215.803 -44.9955L215.849 -45.4934C216.852 -45.4005 217.849 -45.2893 218.838 -45.16L218.774 -44.6643C219.767 -44.5346 220.753 -44.3866 221.732 -44.2209L221.816 -44.7139C222.809 -44.5457 223.795 -44.3593 224.773 -44.155L224.671 -43.6656C225.651 -43.4609 226.622 -43.2383 227.585 -42.9981L227.706 -43.4832C228.683 -43.2395 229.652 -42.9778 230.611 -42.6986L230.471 -42.2185C231.432 -41.9388 232.383 -41.6415 233.324 -41.3269L233.482 -41.8011C234.437 -41.4819 235.382 -41.1451 236.316 -40.791L236.138 -40.3235C237.073 -39.9691 237.998 -39.5973 238.911 -39.2087L239.106 -39.6688C240.033 -39.2745 240.947 -38.863 241.849 -38.4348L241.635 -37.9831C242.538 -37.5545 243.429 -37.1091 244.307 -36.6472L244.54 -37.0897C245.431 -36.6209 246.309 -36.1354 247.173 -35.6335L246.922 -35.2011C247.787 -34.6991 248.638 -34.1807 249.474 -33.6464L249.743 -34.0678C250.592 -33.5258 251.425 -32.9676 252.244 -32.3937L251.957 -31.9844C252.775 -31.4106 253.577 -30.821 254.364 -30.2163L254.669 -30.6126C255.467 -29.9992 256.248 -29.3701 257.013 -28.726L256.691 -28.3437C257.454 -27.7001 258.201 -27.0415 258.93 -26.3683L259.269 -26.7356C260.008 -26.053 260.729 -25.3554 261.431 -24.6436L261.075 -24.2925C261.776 -23.5819 262.458 -22.857 263.121 -22.1185L263.493 -22.4523C264.164 -21.7035 264.816 -20.9408 265.447 -20.1645L265.059 -19.8492C265.688 -19.0753 266.296 -18.2881 266.883 -17.488L267.286 -17.7837C267.88 -16.9733 268.453 -16.1497 269.003 -15.3137L268.586 -15.0388C269.133 -14.2067 269.659 -13.3623 270.161 -12.506L270.592 -12.7589C271.1 -11.8926 271.584 -11.0143 272.044 -10.1245L271.6 -9.89479C272.057 -9.01122 272.49 -8.11638 272.898 -7.21089L273.354 -7.41633C273.766 -6.50184 274.153 -5.57651 274.515 -4.64098L274.048 -4.46085C274.406 -3.53437 274.738 -2.59784 275.044 -1.65189L275.52 -1.80577C275.828 -0.852757 276.11 0.109791 276.365 1.08124L275.881 1.20807C276.133 2.16704 276.358 3.13474 276.555 4.11054L277.045 4.0114C277.243 4.99149 277.414 5.97973 277.557 6.97549L277.062 7.04649C277.203 8.02601 277.316 9.01289 277.401 10.0065L277.899 9.96394Z" stroke="#7CB7A6" stroke-dasharray="3 3"/>
<path opacity="0.6" d="M276.048 17.9719C276.129 18.9743 276.183 19.983 276.21 20.9975L275.71 21.0109C275.724 21.5117 275.731 22.0139 275.731 22.5175C275.731 23.0211 275.724 23.5233 275.71 24.024L276.21 24.0374C276.183 25.052 276.129 26.0607 276.048 27.0631L275.549 27.0228C275.469 28.0246 275.361 29.0201 275.227 30.0085L275.723 30.0756C275.587 31.0798 275.424 32.0768 275.235 33.0663L274.744 32.9726C274.556 33.9584 274.342 34.9366 274.102 35.9066L274.588 36.0266C274.345 37.0089 274.076 37.983 273.782 38.9481L273.304 38.8024C273.012 39.7613 272.694 40.7114 272.353 41.6522L272.823 41.823C272.477 42.7729 272.107 43.7133 271.713 44.6437L271.253 44.4487C270.862 45.3708 270.448 46.2831 270.01 47.1848L270.46 47.4032C270.019 48.3113 269.555 49.2088 269.067 50.0952L268.629 49.8544C268.147 50.7314 267.643 51.5974 267.117 52.452L267.542 52.7141C267.013 53.5729 266.463 54.4201 265.891 55.2551L265.478 54.9726C264.913 55.7978 264.327 56.6111 263.72 57.412L264.119 57.7138C263.51 58.5174 262.882 59.3084 262.233 60.0864L261.849 59.7663C261.209 60.5346 260.55 61.2901 259.871 62.0324L260.24 62.3697C259.561 63.1135 258.863 63.844 258.146 64.5607L257.793 64.2072C257.086 64.9146 256.361 65.6085 255.619 66.2884L255.957 66.657C255.215 67.3376 254.455 68.0043 253.679 68.6564L253.357 68.2737C252.592 68.9172 251.81 69.5466 251.012 70.1612L251.317 70.5572C250.52 71.1722 249.706 71.7726 248.878 72.3578L248.59 71.9495C247.773 72.5269 246.941 73.0895 246.095 73.6369L246.367 74.0566C245.522 74.6035 244.663 75.1352 243.791 75.6512L243.536 75.2209C242.675 75.73 241.802 76.2239 240.915 76.702L241.153 77.142C240.267 77.6199 239.369 78.0821 238.458 78.5282L238.238 78.0792C237.34 78.5194 236.43 78.9437 235.509 79.3519L235.711 79.809C234.791 80.2169 233.859 80.6087 232.917 80.9839L232.732 80.5194C231.803 80.8896 230.862 81.2437 229.912 81.5811L230.08 82.0523C229.131 82.3894 228.172 82.71 227.203 83.0138L227.054 82.5367C226.099 82.8361 225.136 83.119 224.164 83.385L224.296 83.8673C223.325 84.1327 222.347 84.3814 221.36 84.613L221.245 84.1262C220.272 84.3546 219.29 84.5663 218.301 84.7608L218.398 85.2514C217.41 85.4456 216.416 85.6229 215.414 85.7827L215.335 85.289C214.347 85.4467 213.352 85.5874 212.35 85.7107L212.411 86.207C211.412 86.3301 210.406 86.436 209.394 86.5244L209.35 86.0263C208.355 86.1132 207.354 86.1831 206.347 86.2356L206.373 86.7349C205.369 86.7873 204.36 86.8224 203.346 86.84L203.337 86.3401C202.834 86.3488 202.33 86.3531 201.825 86.3531C201.32 86.3531 200.816 86.3488 200.313 86.3401L200.304 86.84C199.29 86.8224 198.281 86.7873 197.277 86.7349L197.303 86.2356C196.296 86.1831 195.295 86.1132 194.3 86.0263L194.256 86.5244C193.244 86.436 192.239 86.3301 191.239 86.207L191.3 85.7107C190.299 85.5874 189.303 85.4467 188.315 85.289L188.236 85.7827C187.235 85.6229 186.24 85.4457 185.252 85.2515L185.349 84.7609C184.36 84.5663 183.378 84.3546 182.405 84.1262L182.29 84.613C181.303 84.3814 180.325 84.1327 179.354 83.8673L179.486 83.385C178.514 83.119 177.551 82.8361 176.596 82.5367L176.447 83.0138C175.478 82.71 174.519 82.3894 173.57 82.0523L173.738 81.5811C172.788 81.2437 171.848 80.8896 170.918 80.5194L170.733 80.9839C169.791 80.6087 168.859 80.2169 167.939 79.809L168.141 79.3519C167.22 78.9437 166.31 78.5194 165.412 78.0792L165.192 78.5282C164.282 78.0821 163.383 77.6199 162.497 77.142L162.735 76.702C161.848 76.2239 160.975 75.7301 160.114 75.2209L159.859 75.6512C158.987 75.1352 158.128 74.6035 157.283 74.0567L157.555 73.6369C156.709 73.0895 155.878 72.5269 155.06 71.9495L154.772 72.3578C153.944 71.7726 153.13 71.1722 152.333 70.5573L152.638 70.1612C151.84 69.5466 151.059 68.9172 150.293 68.2737L149.971 68.6564C149.195 68.0043 148.435 67.3376 147.693 66.657L148.031 66.2884C147.289 65.6085 146.564 64.9146 145.857 64.2072L145.504 64.5607C144.787 63.844 144.089 63.1135 143.41 62.3697L143.779 62.0324C143.1 61.2902 142.441 60.5346 141.801 59.7664L141.417 60.0864C140.768 59.3084 140.14 58.5174 139.531 57.7138L139.93 57.412C139.323 56.6111 138.737 55.7978 138.172 54.9726L137.759 55.2551C137.187 54.4201 136.637 53.5729 136.108 52.7142L136.533 52.452C136.007 51.5974 135.503 50.7314 135.021 49.8544L134.583 50.0952C134.096 49.2089 133.631 48.3113 133.19 47.4032L133.64 47.1848C133.202 46.2831 132.788 45.3708 132.397 44.4487L131.937 44.6437C131.543 43.7133 131.173 42.7729 130.827 41.823L131.297 41.6522C130.956 40.7115 130.638 39.7614 130.346 38.8025L129.868 38.9481C129.574 37.983 129.305 37.0089 129.062 36.0266L129.548 35.9067C129.308 34.9366 129.094 33.9584 128.906 32.9726L128.415 33.0663C128.226 32.0769 128.063 31.0798 127.927 30.0756L128.423 30.0086C128.289 29.0201 128.182 28.0247 128.101 27.0229L127.602 27.0631C127.521 26.0607 127.467 25.052 127.44 24.0375L127.94 24.0241C127.926 23.5233 127.919 23.0211 127.919 22.5175C127.919 22.0139 127.926 21.5117 127.94 21.0109L127.44 20.9975C127.467 19.983 127.521 18.9743 127.602 17.9719L128.101 18.0121C128.182 17.0103 128.289 16.0149 128.423 15.0264L127.927 14.9594C128.063 13.9552 128.226 12.9581 128.415 11.9687L128.906 12.0624C129.094 11.0766 129.308 10.0984 129.548 9.12835L129.062 9.00839C129.305 8.02605 129.574 7.05201 129.868 6.08685L130.346 6.23254C130.638 5.27365 130.956 4.32353 131.297 3.38276L130.827 3.21201C131.173 2.26208 131.543 1.32166 131.937 0.391289L132.397 0.586304C132.788 -0.335842 133.202 -1.24808 133.64 -2.14985L133.19 -2.36823C133.631 -3.27634 134.096 -4.17387 134.583 -5.06023L135.021 -4.81942C135.503 -5.6964 136.007 -6.56244 136.533 -7.41697L136.108 -7.67917C136.637 -8.53794 137.187 -9.38512 137.759 -10.2202L138.172 -9.9376C138.737 -10.7628 139.323 -11.5761 139.93 -12.377L139.531 -12.6788C140.14 -13.4824 140.768 -14.2734 141.417 -15.0515L141.801 -14.7314C142.441 -15.4996 143.1 -16.2552 143.779 -16.9974L143.41 -17.3347C144.089 -18.0785 144.787 -18.809 145.504 -19.5257L145.857 -19.1722C146.564 -19.8796 147.289 -20.5735 148.031 -21.2534L147.693 -21.622C148.435 -22.3027 149.195 -22.9693 149.971 -23.6215L150.293 -23.2387C151.058 -23.8822 151.84 -24.5116 152.638 -25.1263L152.333 -25.5223C153.13 -26.1373 153.944 -26.7376 154.772 -27.3228L155.06 -26.9145C155.878 -27.4919 156.709 -28.0546 157.555 -28.6019L157.283 -29.0217C158.128 -29.5685 158.987 -30.1002 159.859 -30.6163L160.114 -30.1859C160.975 -30.6951 161.848 -31.1889 162.735 -31.667L162.497 -32.1071C163.383 -32.5849 164.282 -33.0471 165.192 -33.4932L165.412 -33.0442C166.31 -33.4844 167.22 -33.9088 168.141 -34.3169L167.939 -34.7741C168.859 -35.1819 169.791 -35.5737 170.733 -35.9489L170.918 -35.4844C171.848 -35.8546 172.788 -36.2087 173.738 -36.5461L173.57 -37.0173C174.519 -37.3544 175.478 -37.6751 176.447 -37.9788L176.596 -37.5017C177.551 -37.8011 178.514 -38.084 179.486 -38.35L179.354 -38.8323C180.325 -39.0977 181.303 -39.3464 182.29 -39.578L182.405 -39.0912C183.378 -39.3197 184.36 -39.5313 185.349 -39.7259L185.252 -40.2165C186.24 -40.4107 187.235 -40.5879 188.236 -40.7478L188.315 -40.254C189.303 -40.4117 190.298 -40.5524 191.3 -40.6757L191.239 -41.172C192.238 -41.2951 193.244 -41.401 194.256 -41.4894L194.3 -40.9913C195.295 -41.0783 196.296 -41.1482 197.303 -41.2006L197.277 -41.7C198.281 -41.7523 199.29 -41.7874 200.304 -41.805L200.313 -41.3051C200.816 -41.3138 201.32 -41.3182 201.825 -41.3182C202.33 -41.3182 202.834 -41.3138 203.337 -41.3051L203.346 -41.805C204.36 -41.7874 205.369 -41.7523 206.373 -41.7L206.347 -41.2006C207.354 -41.1482 208.355 -41.0783 209.35 -40.9913L209.394 -41.4894C210.406 -41.401 211.412 -41.2951 212.411 -41.172L212.35 -40.6757C213.352 -40.5524 214.347 -40.4117 215.335 -40.254L215.414 -40.7478C216.415 -40.5879 217.41 -40.4107 218.398 -40.2165L218.301 -39.7259C219.29 -39.5313 220.272 -39.3197 221.245 -39.0912L221.36 -39.578C222.347 -39.3464 223.325 -39.0977 224.296 -38.8323L224.164 -38.35C225.136 -38.084 226.099 -37.8011 227.054 -37.5018L227.203 -37.9788C228.172 -37.6751 229.131 -37.3544 230.08 -37.0173L229.912 -36.5462C230.862 -36.2087 231.802 -35.8546 232.732 -35.4844L232.917 -35.9489C233.859 -35.5737 234.791 -35.1819 235.711 -34.7741L235.509 -34.3169C236.43 -33.9088 237.34 -33.4844 238.238 -33.0443L238.458 -33.4932C239.368 -33.0471 240.267 -32.5849 241.153 -32.1071L240.915 -31.667C241.802 -31.1889 242.675 -30.6951 243.536 -30.1859L243.791 -30.6163C244.663 -30.1002 245.522 -29.5685 246.367 -29.0217L246.095 -28.6019C246.941 -28.0546 247.772 -27.4919 248.59 -26.9145L248.878 -27.3229C249.706 -26.7376 250.52 -26.1373 251.317 -25.5223L251.012 -25.1263C251.81 -24.5116 252.592 -23.8822 253.357 -23.2387L253.679 -23.6215C254.455 -22.9693 255.215 -22.3027 255.957 -21.622L255.619 -21.2534C256.361 -20.5735 257.086 -19.8797 257.793 -19.1723L258.146 -19.5257C258.863 -18.809 259.561 -18.0785 260.24 -17.3347L259.871 -16.9974C260.55 -16.2552 261.209 -15.4997 261.849 -14.7314L262.233 -15.0515C262.882 -14.2735 263.51 -13.4824 264.119 -12.6789L263.72 -12.377C264.327 -11.5761 264.913 -10.7628 265.478 -9.93762L265.891 -10.2202C266.463 -9.38514 267.013 -8.53796 267.542 -7.6792L267.117 -7.41699C267.643 -6.56246 268.147 -5.69643 268.629 -4.81945L269.067 -5.06025C269.555 -4.17389 270.019 -3.27637 270.46 -2.36826L270.01 -2.14986C270.448 -1.2481 270.862 -0.335865 271.253 0.586281L271.713 0.391262C272.107 1.32163 272.477 2.26206 272.823 3.21199L272.353 3.38274C272.694 4.32351 273.012 5.27362 273.304 6.23252L273.782 6.08683C274.076 7.05199 274.345 8.02602 274.588 9.00836L274.102 9.12832C274.342 10.0984 274.556 11.0765 274.744 12.0623L275.235 11.9686C275.424 12.9581 275.587 13.9552 275.723 14.9594L275.227 15.0264C275.361 16.0149 275.469 17.0103 275.549 18.0121L276.048 17.9719Z" stroke="#7CB7A6" stroke-dasharray="3 3"/>
<path opacity="0.6" d="M285.318 -4.42913C285.412 -3.45383 285.476 -2.47092 285.508 -1.48112L285.008 -1.46504C285.024 -0.978355 285.032 -0.489971 285.032 1.90735e-05C285.032 0.490005 285.024 0.978382 285.008 1.46507L285.508 1.48114C285.476 2.47094 285.412 3.45386 285.318 4.42916L284.82 4.38087C284.726 5.35458 284.6 6.32061 284.444 7.27821L284.937 7.35862C284.778 8.33378 284.588 9.3003 284.368 10.2574L283.881 10.1453C283.662 11.0967 283.413 12.0388 283.134 12.9708L283.613 13.1139C283.331 14.0589 283.019 14.9936 282.678 15.917L282.209 15.7438C281.871 16.6582 281.505 17.5617 281.111 18.4533L281.568 18.6555C281.17 19.5559 280.744 20.4443 280.291 21.32L279.847 21.0903C279.4 21.9551 278.926 22.8075 278.426 23.6466L278.855 23.9025C278.352 24.7472 277.823 25.5785 277.269 26.3957L276.855 26.1151C276.309 26.9206 275.739 27.7124 275.144 28.4895L275.542 28.7933C274.945 29.5737 274.324 30.3395 273.681 31.0899L273.302 30.7646C272.668 31.5034 272.013 32.2273 271.336 32.9354L271.698 33.2809C271.019 33.9904 270.32 34.6841 269.6 35.3614L269.257 34.9973C268.549 35.6637 267.821 36.3142 267.073 36.9479L267.396 37.3293C266.648 37.9638 265.88 38.5816 265.095 39.182L264.791 38.7847C264.018 39.3754 263.227 39.9491 262.419 40.5053L262.703 40.9171C261.895 41.4734 261.07 42.0122 260.229 42.5328L259.966 42.1077C259.138 42.6198 258.295 43.1142 257.437 43.5903L257.68 44.0275C256.822 44.5034 255.949 44.9611 255.063 45.3998L254.841 44.9517C253.969 45.3833 253.083 45.7966 252.184 46.1909L252.384 46.6488C251.486 47.0427 250.575 47.4178 249.652 47.7734L249.472 47.3068C248.564 47.6566 247.644 47.9875 246.712 48.2989L246.871 48.7731C245.941 49.084 244.999 49.3756 244.048 49.6473L243.911 49.1665C242.975 49.4337 242.029 49.6815 241.073 49.9094L241.189 50.3958C240.235 50.6232 239.272 50.831 238.3 51.0185L238.206 50.5276C237.25 50.7119 236.286 50.8765 235.314 51.021L235.388 51.5155C234.418 51.6596 233.441 51.7837 232.456 51.8873L232.404 51.39C231.436 51.4918 230.462 51.5737 229.48 51.6352L229.512 52.1343C228.534 52.1955 227.549 52.2367 226.559 52.2573L226.549 51.7574C226.06 51.7676 225.569 51.7727 225.077 51.7727C224.585 51.7727 224.095 51.7676 223.605 51.7575L223.595 52.2573C222.605 52.2367 221.621 52.1956 220.643 52.1343L220.674 51.6352C219.693 51.5737 218.718 51.4918 217.75 51.39L217.698 51.8873C216.713 51.7837 215.736 51.6596 214.767 51.5155L214.84 51.021C213.868 50.8765 212.904 50.7119 211.949 50.5276L211.854 51.0185C210.882 50.831 209.919 50.6232 208.965 50.3958L209.081 49.9094C208.125 49.6815 207.179 49.4337 206.244 49.1665L206.106 49.6473C205.155 49.3756 204.214 49.084 203.284 48.7731L203.442 48.2989C202.511 47.9875 201.591 47.6566 200.682 47.3068L200.503 47.7734C199.579 47.4178 198.668 47.0427 197.77 46.6488L197.971 46.1909C197.072 45.7966 196.186 45.3833 195.313 44.9517L195.092 45.3998C194.205 44.9611 193.332 44.5034 192.474 44.0275L192.717 43.5903C191.859 43.1142 191.016 42.6198 190.188 42.1077L189.925 42.5328C189.084 42.0122 188.259 41.4734 187.451 40.9171L187.735 40.5053C186.927 39.9491 186.136 39.3754 185.363 38.7847L185.06 39.182C184.274 38.5816 183.506 37.9638 182.758 37.3293L183.081 36.9479C182.334 36.3142 181.605 35.6637 180.897 34.9973L180.554 35.3614C179.834 34.6841 179.135 33.9904 178.457 33.2809L178.818 32.9354C178.141 32.2273 177.486 31.5034 176.853 30.7646L176.473 31.0899C175.83 30.3395 175.209 29.5737 174.613 28.7933L175.01 28.4895C174.415 27.7124 173.845 26.9206 173.299 26.1151L172.885 26.3957C172.331 25.5785 171.802 24.7472 171.299 23.9025L171.728 23.6466C171.228 22.8075 170.754 21.9551 170.307 21.0903L169.863 21.32C169.41 20.4443 168.984 19.5559 168.586 18.6555L169.043 18.4534C168.649 17.5617 168.283 16.6582 167.945 15.7438L167.476 15.917C167.135 14.9936 166.823 14.0589 166.541 13.1139L167.02 12.9708C166.741 12.0388 166.492 11.0967 166.273 10.1453L165.786 10.2574C165.566 9.30032 165.376 8.33379 165.217 7.35863L165.71 7.27822C165.554 6.32062 165.429 5.35459 165.334 4.38088L164.837 4.42917C164.742 3.45387 164.678 2.47096 164.646 1.48116L165.146 1.46508C165.13 0.978394 165.123 0.490009 165.123 1.90735e-05C165.123 -0.489964 165.13 -0.97834 165.146 -1.46502L164.646 -1.4811C164.678 -2.4709 164.742 -3.45381 164.837 -4.42911L165.334 -4.38082C165.429 -5.35453 165.554 -6.32056 165.71 -7.27816L165.217 -7.35857C165.376 -8.33374 165.566 -9.30025 165.786 -10.2574L166.273 -10.1452C166.492 -11.0967 166.741 -12.0388 167.02 -12.9707L166.541 -13.1139C166.823 -14.0589 167.135 -14.9935 167.476 -15.917L167.945 -15.7438C168.283 -16.6582 168.649 -17.5616 169.043 -18.4533L168.586 -18.6554C168.984 -19.5558 169.41 -20.4443 169.863 -21.32L170.307 -21.0903C170.754 -21.9551 171.228 -22.8074 171.728 -23.6466L171.299 -23.9024C171.802 -24.7471 172.331 -25.5785 172.885 -26.3956L173.299 -26.1151C173.845 -26.9206 174.415 -27.7123 175.01 -28.4895L174.613 -28.7932C175.209 -29.5737 175.83 -30.3395 176.473 -31.0899L176.853 -30.7645C177.486 -31.5034 178.141 -32.2272 178.818 -32.9354L178.457 -33.2809C179.135 -33.9903 179.834 -34.6841 180.554 -35.3614L180.897 -34.9972C181.605 -35.6637 182.334 -36.3142 183.081 -36.9479L182.758 -37.3293C183.506 -37.9638 184.274 -38.5816 185.06 -39.182L185.363 -38.7847C186.136 -39.3754 186.927 -39.9491 187.735 -40.5052L187.451 -40.9171C188.259 -41.4734 189.084 -42.0122 189.925 -42.5328L190.188 -42.1076C191.016 -42.6198 191.859 -43.1142 192.717 -43.5902L192.474 -44.0275C193.332 -44.5034 194.205 -44.961 195.092 -45.3998L195.313 -44.9517C196.186 -45.3833 197.072 -45.7966 197.971 -46.1908L197.77 -46.6487C198.668 -47.0426 199.579 -47.4177 200.503 -47.7734L200.682 -47.3068C201.591 -47.6566 202.511 -47.9875 203.442 -48.2988L203.284 -48.773C204.214 -49.0839 205.155 -49.3755 206.106 -49.6473L206.244 -49.1665C207.179 -49.4337 208.125 -49.6815 209.081 -49.9094L208.965 -50.3958C209.919 -50.6232 210.882 -50.831 211.854 -51.0185L211.949 -50.5275C212.904 -50.7119 213.868 -50.8765 214.84 -51.0209L214.767 -51.5155C215.736 -51.6595 216.713 -51.7836 217.698 -51.8872L217.75 -51.39C218.718 -51.4918 219.693 -51.5737 220.674 -51.6352L220.643 -52.1342C221.621 -52.1955 222.605 -52.2367 223.595 -52.2573L223.605 -51.7574C224.095 -51.7676 224.585 -51.7727 225.077 -51.7727C225.569 -51.7727 226.06 -51.7676 226.549 -51.7574L226.559 -52.2573C227.549 -52.2367 228.534 -52.1955 229.512 -52.1342L229.48 -51.6352C230.462 -51.5737 231.436 -51.4918 232.404 -51.39L232.456 -51.8872C233.441 -51.7836 234.418 -51.6595 235.388 -51.5155L235.314 -51.0209C236.286 -50.8765 237.25 -50.7119 238.206 -50.5275L238.3 -51.0185C239.272 -50.831 240.235 -50.6232 241.189 -50.3958L241.073 -49.9094C242.029 -49.6815 242.975 -49.4337 243.911 -49.1665L244.048 -49.6473C244.999 -49.3755 245.941 -49.0839 246.871 -48.773L246.712 -48.2988C247.644 -47.9875 248.564 -47.6566 249.472 -47.3068L249.652 -47.7734C250.575 -47.4177 251.486 -47.0426 252.384 -46.6487L252.184 -46.1908C253.083 -45.7966 253.969 -45.3833 254.841 -44.9517L255.063 -45.3998C255.949 -44.961 256.822 -44.5034 257.68 -44.0275L257.437 -43.5902C258.295 -43.1142 259.138 -42.6198 259.966 -42.1076L260.229 -42.5328C261.07 -42.0122 261.895 -41.4734 262.703 -40.9171L262.419 -40.5052C263.227 -39.9491 264.018 -39.3754 264.791 -38.7847L265.095 -39.182C265.88 -38.5816 266.648 -37.9638 267.396 -37.3293L267.073 -36.9479C267.821 -36.3142 268.549 -35.6637 269.257 -34.9972L269.6 -35.3614C270.32 -34.6841 271.019 -33.9903 271.698 -33.2809L271.336 -32.9354C272.013 -32.2272 272.668 -31.5034 273.302 -30.7645L273.681 -31.0899C274.324 -30.3395 274.945 -29.5737 275.542 -28.7932L275.144 -28.4895C275.739 -27.7123 276.309 -26.9206 276.855 -26.1151L277.269 -26.3956C277.823 -25.5785 278.352 -24.7472 278.855 -23.9025L278.426 -23.6466C278.926 -22.8075 279.4 -21.9551 279.847 -21.0903L280.291 -21.32C280.744 -20.4443 281.17 -19.5558 281.568 -18.6554L281.111 -18.4533C281.505 -17.5616 281.871 -16.6582 282.209 -15.7438L282.678 -15.917C283.019 -14.9935 283.331 -14.0589 283.613 -13.1139L283.134 -12.9707C283.413 -12.0388 283.662 -11.0967 283.881 -10.1453L284.368 -10.2574C284.588 -9.30028 284.778 -8.33376 284.937 -7.35859L284.444 -7.27818C284.6 -6.32058 284.726 -5.35455 284.82 -4.38084L285.318 -4.42913Z" stroke="#7CB7A6" stroke-dasharray="3 3"/>
<path opacity="0.6" d="M289.955 -9.2039C290.055 -8.24038 290.123 -7.26868 290.156 -6.28967L289.657 -6.27244C289.673 -5.79178 289.682 -5.30932 289.682 -4.82516C289.682 -4.34099 289.673 -3.85852 289.657 -3.37786L290.156 -3.36063C290.123 -2.38162 290.055 -1.40993 289.955 -0.446407L289.458 -0.498146C289.358 0.463245 289.225 1.41641 289.06 2.3605L289.552 2.44661C289.384 3.4096 289.182 4.36325 288.949 5.30668L288.464 5.18673C288.232 6.12328 287.969 7.04969 287.675 7.96511L288.151 8.11803C287.853 9.04633 287.523 9.96337 287.164 10.8682L286.699 10.6835C286.343 11.5783 285.958 12.4612 285.543 13.3312L285.994 13.5463C285.576 14.425 285.128 15.2907 284.652 16.1424L284.215 15.8985C283.746 16.7379 283.249 17.5638 282.726 18.3753L283.146 18.6463C282.619 19.4629 282.066 20.265 281.487 21.0515L281.084 20.755C280.514 21.5292 279.919 22.2883 279.3 23.0315L279.684 23.3516C279.062 24.0977 278.416 24.8279 277.747 25.5412L277.383 25.1992C276.725 25.9006 276.045 26.5857 275.343 27.2536L275.687 27.6158C274.984 28.2845 274.26 28.9361 273.515 29.5697L273.191 29.1889C272.46 29.8117 271.708 30.4169 270.936 31.004L271.239 31.4018C270.468 31.9895 269.677 32.5589 268.868 33.1095L268.587 32.6962C267.792 33.2371 266.979 33.7597 266.15 34.2632L266.41 34.6906C265.581 35.1941 264.735 35.6785 263.873 36.1433L263.636 35.7032C262.789 36.1598 261.928 36.5972 261.051 37.0147L261.266 37.4661C260.39 37.8833 259.5 38.2808 258.596 38.6578L258.404 38.1963C257.517 38.5665 256.616 38.9167 255.703 39.2465L255.873 39.7168C254.962 40.0461 254.038 40.3551 253.102 40.6431L252.955 40.1653C252.036 40.4482 251.106 40.7107 250.166 40.9522L250.29 41.4365C249.351 41.6776 248.402 41.8979 247.443 42.0967L247.342 41.6072C246.4 41.8024 245.45 41.9769 244.49 42.13L244.569 42.6238C243.612 42.7765 242.647 42.908 241.673 43.0179L241.617 42.5211C240.662 42.6289 239.699 42.7157 238.729 42.7809L238.762 43.2798C237.796 43.3448 236.823 43.3884 235.843 43.4103L235.832 42.9104C235.349 42.9212 234.864 42.9266 234.377 42.9266C233.891 42.9266 233.406 42.9212 232.923 42.9104L232.912 43.4103C231.932 43.3884 230.959 43.3448 229.992 43.2798L230.026 42.7809C229.056 42.7157 228.093 42.6289 227.138 42.5211L227.082 43.0179C226.108 42.908 225.143 42.7765 224.186 42.6238L224.265 42.13C223.305 41.9769 222.355 41.8024 221.413 41.6072L221.312 42.0967C220.353 41.8979 219.404 41.6776 218.465 41.4365L218.589 40.9523C217.649 40.7107 216.719 40.4482 215.8 40.1653L215.653 40.6431C214.717 40.3551 213.793 40.0461 212.882 39.7168L213.051 39.2465C212.139 38.9167 211.238 38.5665 210.351 38.1963L210.158 38.6578C209.255 38.2808 208.364 37.8833 207.489 37.4661L207.704 37.0147C206.827 36.5972 205.965 36.1598 205.119 35.7032L204.882 36.1433C204.02 35.6785 203.174 35.1941 202.345 34.6906L202.605 34.2632C201.775 33.7597 200.963 33.2371 200.168 32.6962L199.887 33.1095C199.078 32.5589 198.287 31.9895 197.515 31.4018L197.818 31.004C197.047 30.4169 196.295 29.8116 195.563 29.1889L195.239 29.5697C194.495 28.9361 193.77 28.2845 193.068 27.6158L193.412 27.2536C192.71 26.5857 192.03 25.9006 191.372 25.1992L191.008 25.5412C190.339 24.8278 189.693 24.0977 189.071 23.3516L189.455 23.0315C188.836 22.2883 188.241 21.5292 187.671 20.755L187.268 21.0515C186.689 20.265 186.136 19.4629 185.609 18.6463L186.029 18.3753C185.506 17.5638 185.009 16.7379 184.54 15.8985L184.103 16.1424C183.627 15.2907 183.179 14.425 182.761 13.5463L183.212 13.3312C182.797 12.4612 182.412 11.5783 182.056 10.6835L181.591 10.8682C181.231 9.96336 180.902 9.04633 180.604 8.11803L181.08 7.96511C180.786 7.04969 180.522 6.12328 180.291 5.18673L179.806 5.30668C179.572 4.36325 179.371 3.4096 179.203 2.44661L179.695 2.3605C179.53 1.41641 179.397 0.463245 179.297 -0.49815L178.8 -0.446415C178.7 -1.40994 178.632 -2.38163 178.598 -3.36065L179.098 -3.37787C179.082 -3.85853 179.073 -4.34099 179.073 -4.82516C179.073 -5.30933 179.082 -5.79179 179.098 -6.27245L178.598 -6.28968C178.632 -7.26869 178.7 -8.24038 178.8 -9.2039L179.297 -9.15217C179.397 -10.1136 179.53 -11.0667 179.695 -12.0108L179.203 -12.0969C179.371 -13.0599 179.572 -14.0136 179.806 -14.957L180.291 -14.837C180.522 -15.7736 180.786 -16.7 181.08 -17.6154L180.604 -17.7683C180.902 -18.6966 181.231 -19.6137 181.591 -20.5186L182.056 -20.3338C182.412 -21.2286 182.797 -22.1115 183.212 -22.9816L182.761 -23.1967C183.179 -24.0753 183.627 -24.941 184.103 -25.7927L184.54 -25.5488C185.009 -26.3882 185.506 -27.2141 186.029 -28.0256L185.609 -28.2966C186.136 -29.1133 186.689 -29.9153 187.268 -30.7018L187.671 -30.4054C188.241 -31.1795 188.836 -31.9386 189.455 -32.6818L189.071 -33.0019C189.693 -33.748 190.339 -34.4782 191.008 -35.1915L191.372 -34.8495C192.03 -35.5509 192.71 -36.236 193.412 -36.9039L193.068 -37.2661C193.77 -37.9348 194.495 -38.5864 195.239 -39.2201L195.563 -38.8392C196.295 -39.462 197.047 -40.0673 197.818 -40.6543L197.515 -41.0521C198.287 -41.6398 199.078 -42.2093 199.887 -42.7598L200.168 -42.3465C200.963 -42.8875 201.775 -43.41 202.605 -43.9135L202.345 -44.3409C203.174 -44.8444 204.02 -45.3288 204.882 -45.7936L205.119 -45.3535C205.965 -45.8101 206.827 -46.2475 207.704 -46.665L207.489 -47.1164C208.364 -47.5336 209.255 -47.9311 210.158 -48.3081L210.351 -47.8466C211.238 -48.2168 212.139 -48.5671 213.051 -48.8968L212.882 -49.3671C213.793 -49.6964 214.717 -50.0054 215.653 -50.2934L215.8 -49.8156C216.719 -50.0985 217.649 -50.361 218.589 -50.6026L218.465 -51.0869C219.404 -51.3279 220.353 -51.5482 221.312 -51.7471L221.413 -51.2575C222.355 -51.4528 223.305 -51.6272 224.265 -51.7803L224.186 -52.2741C225.143 -52.4268 226.108 -52.5584 227.082 -52.6683L227.138 -52.1714C228.093 -52.2793 229.056 -52.3661 230.026 -52.4313L229.992 -52.9301C230.959 -52.9951 231.932 -53.0388 232.912 -53.0606L232.923 -52.5607C233.406 -52.5715 233.891 -52.5769 234.377 -52.5769C234.864 -52.5769 235.349 -52.5715 235.832 -52.5607L235.843 -53.0606C236.823 -53.0388 237.796 -52.9951 238.762 -52.9301L238.729 -52.4313C239.699 -52.3661 240.662 -52.2793 241.617 -52.1714L241.673 -52.6683C242.647 -52.5584 243.612 -52.4268 244.569 -52.2741L244.49 -51.7803C245.45 -51.6272 246.4 -51.4528 247.342 -51.2575L247.443 -51.7471C248.402 -51.5482 249.351 -51.3279 250.29 -51.0869L250.166 -50.6026C251.106 -50.3611 252.036 -50.0985 252.955 -49.8156L253.102 -50.2935C254.038 -50.0054 254.962 -49.6964 255.873 -49.3671L255.703 -48.8968C256.616 -48.5671 257.517 -48.2168 258.404 -47.8466L258.596 -48.3081C259.5 -47.9311 260.39 -47.5336 261.266 -47.1164L261.051 -46.665C261.928 -46.2475 262.789 -45.8101 263.636 -45.3535L263.873 -45.7936C264.735 -45.3288 265.581 -44.8444 266.41 -44.3409L266.15 -43.9135C266.979 -43.41 267.792 -42.8875 268.587 -42.3465L268.868 -42.7598C269.677 -42.2093 270.468 -41.6398 271.239 -41.0521L270.937 -40.6543C271.708 -40.0673 272.46 -39.462 273.191 -38.8392L273.515 -39.2201C274.26 -38.5864 274.984 -37.9348 275.687 -37.2661L275.343 -36.9039C276.045 -36.236 276.725 -35.5509 277.383 -34.8495L277.747 -35.1915C278.416 -34.4782 279.062 -33.748 279.684 -33.0019L279.3 -32.6818C279.919 -31.9386 280.514 -31.1795 281.084 -30.4054L281.487 -30.7018C282.066 -29.9153 282.619 -29.1133 283.146 -28.2966L282.726 -28.0256C283.249 -27.2141 283.746 -26.3882 284.215 -25.5488L284.652 -25.7927C285.128 -24.941 285.576 -24.0753 285.994 -23.1967L285.543 -22.9816C285.958 -22.1115 286.343 -21.2286 286.699 -20.3338L287.164 -20.5186C287.523 -19.6137 287.853 -18.6966 288.151 -17.7683L287.675 -17.6154C287.969 -16.7 288.232 -15.7736 288.464 -14.837L288.949 -14.957C289.182 -14.0136 289.384 -13.0599 289.552 -12.0969L289.06 -12.0108C289.225 -11.0667 289.358 -10.1136 289.458 -9.15216L289.955 -9.2039Z" stroke="#7CB7A6" stroke-dasharray="3 3"/>
<path opacity="0.4" d="M292.74 -18.9955C292.843 -18.031 292.912 -17.0577 292.946 -16.0766L292.447 -16.059C292.464 -15.5777 292.472 -15.0945 292.472 -14.6096C292.472 -14.1246 292.464 -13.6414 292.447 -13.1602L292.946 -13.1425C292.912 -12.1614 292.843 -11.1882 292.74 -10.2236L292.243 -10.2766C292.14 -9.31303 292.003 -8.35832 291.834 -7.41341L292.326 -7.32518C292.153 -6.36068 291.947 -5.40625 291.707 -4.4629L291.223 -4.58585C290.985 -3.64898 290.715 -2.72311 290.413 -1.80925L290.888 -1.65245C290.581 -0.724476 290.243 0.191212 289.873 1.09358L289.41 0.904125C289.045 1.79711 288.648 2.67699 288.223 3.54276L288.671 3.76346C288.241 4.63885 287.78 5.49986 287.291 6.3455L286.858 6.09515C286.376 6.92953 285.865 7.74886 285.326 8.55212L285.742 8.83041C285.2 9.63985 284.63 10.4331 284.035 11.209L283.638 10.9046C283.052 11.6685 282.44 12.4156 281.803 13.145L282.18 13.4738C281.539 14.2072 280.875 14.9226 280.187 15.6192L279.831 15.2679C279.154 15.9533 278.454 16.6202 277.733 17.2679L278.067 17.64C277.343 18.2895 276.597 18.9197 275.831 19.5296L275.519 19.1384C274.766 19.7379 273.993 20.3176 273.2 20.8767L273.488 21.2853C272.694 21.8458 271.88 22.3857 271.048 22.9041L270.784 22.4797C269.966 22.9892 269.131 23.4776 268.279 23.9443L268.519 24.3828C267.667 24.8497 266.798 25.295 265.914 25.7178L265.698 25.2667C264.83 25.6817 263.946 26.0748 263.048 26.4452L263.239 26.9074C262.341 27.278 261.429 27.626 260.503 27.9505L260.338 27.4787C259.43 27.7974 258.508 28.0933 257.575 28.3656L257.715 28.8456C256.782 29.1178 255.838 29.3667 254.882 29.5915L254.768 29.1048C253.831 29.3253 252.883 29.5224 251.926 29.6955L252.015 30.1875C251.06 30.3601 250.096 30.5089 249.122 30.6332L249.059 30.1372C248.105 30.2591 247.143 30.3572 246.172 30.4309L246.21 30.9295C245.243 31.003 244.268 31.0524 243.286 31.0771L243.274 30.5773C242.79 30.5894 242.305 30.5956 241.818 30.5956C241.332 30.5956 240.847 30.5894 240.363 30.5773L240.351 31.0771C239.369 31.0524 238.394 31.003 237.427 30.9295L237.465 30.4309C236.494 30.3572 235.532 30.2591 234.578 30.1372L234.515 30.6332C233.541 30.5089 232.577 30.3601 231.622 30.1875L231.711 29.6955C230.753 29.5224 229.806 29.3253 228.869 29.1048L228.754 29.5915C227.799 29.3667 226.854 29.1178 225.922 28.8456L226.062 28.3656C225.129 28.0933 224.207 27.7974 223.299 27.4787L223.133 27.9505C222.208 27.626 221.296 27.278 220.398 26.9074L220.588 26.4452C219.691 26.0748 218.807 25.6817 217.939 25.2667L217.723 25.7178C216.839 25.295 215.97 24.8497 215.117 24.3828L215.358 23.9443C214.506 23.4776 213.671 22.9892 212.853 22.4797L212.589 22.9041C211.757 22.3857 210.943 21.8458 210.149 21.2853L210.437 20.8767C209.644 20.3176 208.871 19.7379 208.117 19.1384L207.806 19.5296C207.04 18.9197 206.294 18.2895 205.57 17.64L205.904 17.2679C205.182 16.6202 204.483 15.9533 203.806 15.2679L203.45 15.6192C202.762 14.9226 202.097 14.2072 201.457 13.4738L201.834 13.145C201.197 12.4156 200.585 11.6685 199.999 10.9046L199.602 11.209C199.007 10.4331 198.437 9.63985 197.895 8.83041L198.31 8.55212C197.772 7.74886 197.261 6.92953 196.779 6.09515L196.346 6.3455C195.857 5.49987 195.396 4.63885 194.966 3.76346L195.414 3.54276C194.988 2.67699 194.592 1.79711 194.226 0.904118L193.764 1.09358C193.394 0.191208 193.056 -0.72448 192.749 -1.65246L193.224 -1.80926C192.922 -2.72312 192.652 -3.64899 192.414 -4.58586L191.93 -4.46291C191.69 -5.40626 191.484 -6.36068 191.311 -7.32519L191.803 -7.41341C191.633 -8.35833 191.497 -9.31303 191.394 -10.2766L190.897 -10.2236C190.794 -11.1882 190.725 -12.1614 190.69 -13.1425L191.19 -13.1602C191.173 -13.6414 191.165 -14.1246 191.165 -14.6096C191.165 -15.0945 191.173 -15.5777 191.19 -16.059L190.69 -16.0766C190.725 -17.0577 190.794 -18.031 190.897 -18.9955L191.394 -18.9425C191.497 -19.9061 191.633 -20.8608 191.803 -21.8057L191.311 -21.894C191.484 -22.8585 191.69 -23.8129 191.93 -24.7562L192.414 -24.6333C192.652 -25.5702 192.922 -26.496 193.224 -27.4099L192.749 -27.5667C193.056 -28.4947 193.394 -29.4103 193.764 -30.3127L194.226 -30.1233C194.592 -31.0162 194.988 -31.8961 195.414 -32.7619L194.966 -32.9826C195.396 -33.858 195.857 -34.719 196.346 -35.5646L196.779 -35.3143C197.261 -36.1487 197.772 -36.968 198.31 -37.7713L197.895 -38.0495C198.437 -38.859 199.007 -39.6522 199.602 -40.4281L199.999 -40.1237C200.585 -40.8876 201.197 -41.6348 201.834 -42.3641L201.457 -42.6929C202.097 -43.4263 202.762 -44.1418 203.45 -44.8384L203.806 -44.487C204.483 -45.1724 205.182 -45.8394 205.904 -46.487L205.57 -46.8591C206.294 -47.5087 207.04 -48.1388 207.806 -48.7487L208.117 -48.3575C208.871 -48.957 209.644 -49.5368 210.437 -50.0959L210.149 -50.5044C210.943 -51.065 211.757 -51.6048 212.589 -52.1232L212.853 -51.6989C213.671 -52.2083 214.506 -52.6968 215.358 -53.1634L215.117 -53.6019C215.97 -54.0689 216.839 -54.5142 217.723 -54.9369L217.939 -54.4858C218.807 -54.9008 219.691 -55.294 220.588 -55.6644L220.398 -56.1266C221.296 -56.4971 222.208 -56.8451 223.133 -57.1697L223.299 -56.6978C224.207 -57.0165 225.129 -57.3124 226.062 -57.5848L225.922 -58.0647C226.854 -58.3369 227.799 -58.5858 228.754 -58.8107L228.869 -58.324C229.806 -58.5445 230.753 -58.7416 231.711 -58.9146L231.622 -59.4066C232.577 -59.5792 233.541 -59.728 234.515 -59.8523L234.578 -59.3564C235.532 -59.4782 236.494 -59.5763 237.465 -59.65L237.427 -60.1486C238.394 -60.2221 239.369 -60.2715 240.351 -60.2962L240.363 -59.7964C240.847 -59.8086 241.332 -59.8147 241.818 -59.8147C242.305 -59.8147 242.79 -59.8086 243.274 -59.7964L243.286 -60.2962C244.268 -60.2715 245.243 -60.2221 246.21 -60.1486L246.172 -59.65C247.143 -59.5763 248.105 -59.4782 249.059 -59.3564L249.122 -59.8523C250.096 -59.728 251.06 -59.5792 252.015 -59.4066L251.926 -58.9146C252.883 -58.7416 253.831 -58.5444 254.768 -58.324L254.882 -58.8107C255.838 -58.5858 256.782 -58.3369 257.715 -58.0647L257.575 -57.5848C258.508 -57.3124 259.43 -57.0165 260.338 -56.6978L260.503 -57.1697C261.429 -56.8451 262.341 -56.4971 263.239 -56.1266L263.048 -55.6644C263.946 -55.294 264.83 -54.9008 265.698 -54.4858L265.914 -54.9369C266.798 -54.5142 267.667 -54.0689 268.519 -53.6019L268.279 -53.1634C269.131 -52.6968 269.966 -52.2083 270.784 -51.6989L271.048 -52.1232C271.88 -51.6048 272.694 -51.0649 273.488 -50.5044L273.2 -50.0959C273.993 -49.5368 274.766 -48.957 275.519 -48.3575L275.831 -48.7487C276.597 -48.1388 277.343 -47.5087 278.067 -46.8591L277.733 -46.487C278.454 -45.8394 279.154 -45.1724 279.831 -44.487L280.187 -44.8384C280.875 -44.1418 281.539 -43.4263 282.18 -42.6929L281.803 -42.3641C282.44 -41.6348 283.052 -40.8876 283.638 -40.1237L284.035 -40.4281C284.63 -39.6522 285.2 -38.859 285.742 -38.0495L285.326 -37.7712C285.865 -36.968 286.376 -36.1487 286.858 -35.3143L287.291 -35.5646C287.78 -34.719 288.241 -33.858 288.671 -32.9826L288.223 -32.7619C288.648 -31.8961 289.045 -31.0162 289.41 -30.1232L289.873 -30.3127C290.243 -29.4103 290.581 -28.4946 290.888 -27.5667L290.413 -27.4099C290.715 -26.496 290.985 -25.5701 291.223 -24.6333L291.707 -24.7562C291.947 -23.8129 292.153 -22.8584 292.326 -21.8939L291.834 -21.8057C292.003 -20.8608 292.14 -19.9061 292.243 -18.9425L292.74 -18.9955Z" stroke="#7CB7A6" stroke-dasharray="3 3"/>
<path d="M11.1841 100.821C11.9582 101.75 12.5193 102.82 12.8056 103.979L12.3202 104.099C12.4519 104.632 12.5212 105.185 12.5212 105.752C12.5212 106.319 12.4519 106.872 12.3202 107.405L12.8056 107.525C12.5193 108.683 11.9582 109.754 11.1841 110.683L10.8 110.363C10.099 111.204 9.20914 111.926 8.17988 112.481L8.41725 112.921C7.40102 113.469 6.25979 113.861 5.03898 114.055L4.9602 113.562C4.40798 113.65 3.83822 113.696 3.25548 113.696C2.67275 113.696 2.10298 113.65 1.55076 113.562L1.47198 114.055C0.251173 113.861 -0.890058 113.469 -1.90629 112.921L-1.66892 112.481C-2.69818 111.926 -3.58806 111.204 -4.28901 110.363L-4.67312 110.683C-5.4472 109.754 -6.0083 108.683 -6.2946 107.525L-5.8092 107.405C-5.94093 106.872 -6.01025 106.319 -6.01025 105.752C-6.01025 105.185 -5.94093 104.632 -5.8092 104.099L-6.2946 103.979C-6.0083 102.82 -5.4472 101.75 -4.67312 100.821L-4.28901 101.141C-3.58806 100.3 -2.69818 99.5775 -1.66891 99.0223L-1.90629 98.5823C-0.890058 98.0341 0.251173 97.643 1.47198 97.4482L1.55076 97.9419C2.10298 97.8538 2.67275 97.8077 3.25548 97.8077C3.83822 97.8077 4.40798 97.8538 4.9602 97.9419L5.03898 97.4482C6.25979 97.643 7.40102 98.0341 8.41725 98.5823L8.17988 99.0223C9.20914 99.5775 10.099 100.3 10.8 101.141L11.1841 100.821Z" stroke="#1E6AFF" stroke-opacity="0.5" stroke-dasharray="3 3"/>
</g>
<defs>
<linearGradient id="paint0_linear_2810_248" x1="9.76574" y1="6.03147" x2="261.698" y2="210.277" gradientUnits="userSpaceOnUse">
<stop stop-color="#397665"/>
<stop offset="1" stop-color="#4A8877"/>
</linearGradient>
<linearGradient id="paint1_linear_2810_248" x1="-5.34559" y1="-2.57214" x2="70.362" y2="31.7609" gradientUnits="userSpaceOnUse">
<stop stop-color="#579684"/>
<stop offset="1" stop-color="#7CB7A6" stop-opacity="0"/>
<stop offset="1" stop-color="#68A795" stop-opacity="0"/>
</linearGradient>
<linearGradient id="paint2_linear_2810_248" x1="-3.78573" y1="-1.72122" x2="48.7546" y2="23.4948" gradientUnits="userSpaceOnUse">
<stop stop-color="#579684"/>
<stop offset="1" stop-color="#7CB7A6" stop-opacity="0"/>
<stop offset="1" stop-color="#68A795" stop-opacity="0"/>
</linearGradient>
</defs>
</svg>
