<svg width="257" height="165" viewBox="0 0 257 165" fill="none" xmlns="http://www.w3.org/2000/svg">
<path d="M13.2146 154.807C13.6575 155.346 14.1678 155.616 14.7454 155.616C14.9573 155.616 15.1787 155.587 15.4098 155.529C15.5831 155.934 15.6697 156.271 15.6697 156.54C15.6697 156.983 15.429 157.31 14.9476 157.522C14.4855 157.734 13.9174 157.84 13.2435 157.84C12.1266 157.84 11.1349 157.291 10.2684 156.194C9.67145 155.443 9.04563 154.412 8.39092 153.103C7.73621 151.774 7.22592 150.619 6.86005 149.637C6.41716 149.464 6.19572 149.155 6.19572 148.713C6.19572 148.347 6.27274 147.971 6.42679 147.586C6.73489 147.663 7.09113 147.702 7.49551 147.702C8.53534 147.702 9.40186 147.393 10.0951 146.777C10.8076 146.142 11.1638 145.208 11.1638 143.976C11.1638 142.608 10.8268 141.665 10.1529 141.145C9.47889 140.606 8.42943 140.336 7.00447 140.336C6.48456 140.336 5.85873 140.375 5.127 140.452C5.20402 141.53 5.24254 143.446 5.24254 146.2V151.832C5.24254 154.374 5.42547 156.232 5.79134 157.407C5.3677 157.561 4.77076 157.638 4.00052 157.638C3.28804 157.638 2.79701 157.513 2.52742 157.262C2.27709 157.012 2.15193 156.588 2.15193 155.991C2.15193 155.683 2.16155 154.923 2.18081 153.709C2.20007 152.496 2.20969 151.553 2.20969 150.879V145.102C2.20969 142.445 2.08453 140.23 1.8342 138.459C3.31692 138.228 4.82853 138.112 6.36902 138.112C11.78 138.112 14.4855 140.067 14.4855 143.976C14.4855 145.458 14.0811 146.691 13.2724 147.673C12.4828 148.635 11.4334 149.29 10.124 149.637C11.3756 152.313 12.4058 154.037 13.2146 154.807ZM26.0987 157.84C23.3259 157.84 21.1114 156.945 19.4554 155.154C17.8186 153.363 17.0002 150.975 17.0002 147.99C17.0002 144.967 17.8186 142.57 19.4554 140.798C21.1114 139.007 23.3259 138.112 26.0987 138.112C28.9101 138.112 31.1439 139.007 32.7999 140.798C34.4559 142.57 35.2839 144.967 35.2839 147.99C35.2839 150.975 34.4463 153.363 32.771 155.154C31.115 156.945 28.8909 157.84 26.0987 157.84ZM31.9911 148.481C31.9911 147.095 31.8082 145.824 31.4423 144.669C31.0957 143.494 30.4603 142.493 29.536 141.665C28.6309 140.817 27.5044 140.394 26.1565 140.394C24.3657 140.394 22.9407 141.029 21.8817 142.3C20.8226 143.552 20.293 145.169 20.293 147.153C20.293 148.597 20.4663 149.926 20.8129 151.139C21.1788 152.352 21.8143 153.392 22.7193 154.258C23.6436 155.125 24.7797 155.558 26.1276 155.558C27.9955 155.558 29.4397 154.903 30.4603 153.594C31.4808 152.285 31.9911 150.58 31.9911 148.481ZM46.7747 157.84C44.0018 157.84 41.7873 156.945 40.1313 155.154C38.4945 153.363 37.6761 150.975 37.6761 147.99C37.6761 144.967 38.4945 142.57 40.1313 140.798C41.7873 139.007 44.0018 138.112 46.7747 138.112C49.5861 138.112 51.8198 139.007 53.4758 140.798C55.1318 142.57 55.9598 144.967 55.9598 147.99C55.9598 150.975 55.1222 153.363 53.4469 155.154C51.7909 156.945 49.5668 157.84 46.7747 157.84ZM52.667 148.481C52.667 147.095 52.4841 145.824 52.1182 144.669C51.7716 143.494 51.1362 142.493 50.2119 141.665C49.3068 140.817 48.1804 140.394 46.8324 140.394C45.0416 140.394 43.6167 141.029 42.5576 142.3C41.4985 143.552 40.9689 145.169 40.9689 147.153C40.9689 148.597 41.1422 149.926 41.4888 151.139C41.8547 152.352 42.4902 153.392 43.3952 154.258C44.3195 155.125 45.4556 155.558 46.8035 155.558C48.6714 155.558 50.1156 154.903 51.1362 153.594C52.1568 152.285 52.667 150.58 52.667 148.481ZM62.6847 150.879V145.102C62.6847 144.024 62.6654 142.579 62.6269 140.769C59.8925 140.769 58.0921 140.808 57.2256 140.885C57.1678 140.654 57.1389 140.307 57.1389 139.845C57.1389 139.325 57.2352 138.979 57.4277 138.805C57.6396 138.613 57.9669 138.507 58.4098 138.488C58.8912 138.468 60.0177 138.459 61.7893 138.459H65.1976C68.4326 138.459 70.3871 138.43 71.0611 138.372C71.1189 138.603 71.1478 138.94 71.1478 139.383C71.1478 139.903 71.0418 140.259 70.83 140.452C70.6375 140.625 70.3197 140.721 69.8768 140.74C69.3377 140.76 67.9994 140.769 65.8619 140.769C65.7657 142.849 65.7175 144.553 65.7175 145.882V151.688C65.7175 154.249 65.9005 156.136 66.2663 157.349C65.7271 157.541 65.1302 157.638 64.4755 157.638C63.763 157.638 63.272 157.513 63.0024 157.262C62.7521 157.012 62.6269 156.588 62.6269 155.991C62.6269 155.683 62.6365 154.923 62.6558 153.709C62.675 152.496 62.6847 151.553 62.6847 150.879ZM82.3785 142.878C82.0897 142.146 81.5505 141.54 80.761 141.058C79.9715 140.577 79.1531 140.336 78.3058 140.336C77.3238 140.336 76.4958 140.577 75.8218 141.058C75.1671 141.54 74.8397 142.252 74.8397 143.196C74.8397 143.773 75.0227 144.264 75.3885 144.669C75.7544 145.054 76.2262 145.362 76.8039 145.593C77.4008 145.805 78.0459 146.007 78.7391 146.2C79.4516 146.392 80.1544 146.614 80.8477 146.864C81.5601 147.114 82.2052 147.413 82.7829 147.759C83.3798 148.106 83.8612 148.607 84.2271 149.261C84.593 149.916 84.7759 150.696 84.7759 151.601C84.7759 152.737 84.5833 153.729 84.1982 154.576C83.8131 155.404 83.2739 156.049 82.5807 156.511C81.9067 156.973 81.175 157.31 80.3855 157.522C79.596 157.734 78.7391 157.84 77.8148 157.84C76.2166 157.84 74.7916 157.551 73.5399 156.973C72.3076 156.396 71.6914 155.712 71.6914 154.923C71.6914 154.133 72.2498 153.478 73.3666 152.958C73.7518 153.69 74.4161 154.306 75.3597 154.807C76.3032 155.308 77.2564 155.558 78.2192 155.558C79.336 155.558 80.2603 155.308 80.9921 154.807C81.7431 154.287 82.1186 153.507 82.1186 152.467C82.1186 151.851 81.8682 151.331 81.3676 150.908C80.8862 150.484 80.2796 150.166 79.5479 149.955C78.8161 149.743 78.017 149.483 77.1505 149.175C76.2839 148.847 75.4848 148.501 74.7531 148.135C74.0214 147.75 73.4052 147.162 72.9045 146.373C72.4231 145.583 72.1824 144.63 72.1824 143.513C72.1824 141.8 72.8275 140.471 74.1176 139.527C75.4078 138.584 77.0061 138.112 78.9124 138.112C79.7212 138.112 80.5299 138.218 81.3387 138.43C82.1474 138.622 82.8503 138.95 83.4472 139.412C84.0442 139.855 84.3426 140.375 84.3426 140.972C84.3426 141.973 83.6879 142.608 82.3785 142.878ZM103.295 149.81C102.64 148.096 101.648 145.198 100.32 141.116C100.146 141.559 99.7035 142.791 98.991 144.813C98.2785 146.835 97.6527 148.501 97.1135 149.81C98.6155 149.849 99.8768 149.868 100.897 149.868C101.918 149.868 102.717 149.849 103.295 149.81ZM103.901 151.514C101.745 151.553 100.435 151.572 99.9731 151.572C99.5109 151.572 98.317 151.553 96.3914 151.514C95.1013 154.769 94.2925 156.983 93.9652 158.158C93.3297 158.023 92.8772 157.869 92.6076 157.696C92.3573 157.522 92.2321 157.31 92.2321 157.06C92.2321 156.79 92.6461 155.693 93.4741 153.767C96.247 147.239 98.163 142.146 99.2221 138.488C99.588 138.43 100.002 138.401 100.464 138.401C100.926 138.401 101.254 138.487 101.446 138.661C101.639 138.815 101.841 139.238 102.053 139.932C103.266 143.841 104.479 147.393 105.692 150.59C106.925 153.767 107.868 155.991 108.523 157.262C107.984 157.647 107.521 157.84 107.136 157.84C106.52 157.84 106.106 157.58 105.894 157.06C105.528 156.117 104.864 154.268 103.901 151.514ZM122.843 153.681C123.69 154.027 124.114 154.528 124.114 155.183C124.114 155.818 123.565 156.425 122.468 157.002C121.37 157.561 120.012 157.84 118.395 157.84C115.68 157.84 113.504 156.935 111.867 155.125C110.23 153.295 109.412 150.879 109.412 147.875C109.412 144.852 110.23 142.474 111.867 140.74C113.504 138.988 115.718 138.112 118.51 138.112C120.012 138.112 121.274 138.42 122.294 139.036C123.315 139.633 123.825 140.375 123.825 141.26C123.825 142.05 123.276 142.531 122.179 142.705C121.813 141.761 121.235 141.058 120.446 140.596C119.656 140.115 118.819 139.874 117.933 139.874C116.123 139.874 114.64 140.596 113.485 142.04C112.348 143.465 111.78 145.333 111.78 147.644C111.78 149.935 112.358 151.919 113.513 153.594C114.669 155.25 116.286 156.078 118.366 156.078C119.29 156.078 120.147 155.876 120.937 155.471C121.745 155.067 122.381 154.47 122.843 153.681ZM140.219 153.681C141.066 154.027 141.49 154.528 141.49 155.183C141.49 155.818 140.941 156.425 139.843 157.002C138.746 157.561 137.388 157.84 135.771 157.84C133.055 157.84 130.879 156.935 129.243 155.125C127.606 153.295 126.788 150.879 126.788 147.875C126.788 144.852 127.606 142.474 129.243 140.74C130.879 138.988 133.094 138.112 135.886 138.112C137.388 138.112 138.649 138.42 139.67 139.036C140.69 139.633 141.201 140.375 141.201 141.26C141.201 142.05 140.652 142.531 139.554 142.705C139.189 141.761 138.611 141.058 137.821 140.596C137.032 140.115 136.194 139.874 135.308 139.874C133.498 139.874 132.016 140.596 130.86 142.04C129.724 143.465 129.156 145.333 129.156 147.644C129.156 149.935 129.734 151.919 130.889 153.594C132.044 155.25 133.662 156.078 135.742 156.078C136.666 156.078 137.523 155.876 138.312 155.471C139.121 155.067 139.757 154.47 140.219 153.681ZM161.898 147.962C161.898 150.965 161.089 153.363 159.472 155.154C157.874 156.945 155.717 157.84 153.002 157.84C150.306 157.84 148.159 156.945 146.561 155.154C144.962 153.363 144.163 150.965 144.163 147.962C144.163 144.958 144.962 142.57 146.561 140.798C148.159 139.007 150.306 138.112 153.002 138.112C155.717 138.112 157.874 139.007 159.472 140.798C161.089 142.57 161.898 144.958 161.898 147.962ZM158.028 142.676C157.546 141.828 156.872 141.154 156.006 140.654C155.139 140.134 154.148 139.874 153.031 139.874C151.047 139.874 149.468 140.558 148.294 141.925C147.119 143.273 146.532 144.996 146.532 147.095C146.532 149.386 147.013 151.418 147.976 153.19C148.457 154.075 149.122 154.778 149.969 155.298C150.835 155.818 151.837 156.078 152.973 156.078C155.053 156.078 156.651 155.385 157.768 153.998C158.904 152.593 159.472 150.783 159.472 148.568C159.472 146.334 158.99 144.37 158.028 142.676ZM165.622 152.005L165.882 143.08C165.882 141.251 165.718 139.739 165.391 138.545C165.776 138.391 166.228 138.314 166.748 138.314C167.268 138.314 167.653 138.43 167.904 138.661C168.173 138.873 168.308 139.325 168.308 140.018C168.308 140.692 168.231 142.445 168.077 145.275C167.942 148.087 167.875 150.224 167.875 151.688C167.875 153.132 168.26 154.21 169.03 154.923C169.82 155.635 170.705 155.991 171.687 155.991C172.669 155.991 173.68 155.76 174.72 155.298C175.76 154.836 176.607 154.297 177.262 153.681L177.291 149.983V145.102C177.291 142.387 177.224 140.153 177.089 138.401C177.416 138.343 177.811 138.314 178.273 138.314C179.217 138.314 179.688 138.68 179.688 139.412C179.688 139.45 179.669 139.807 179.631 140.481C179.515 142.502 179.457 145.112 179.457 148.308C179.457 151.505 179.486 153.613 179.544 154.634C179.602 155.635 179.756 156.559 180.006 157.407C179.659 157.561 179.207 157.638 178.648 157.638C178.109 157.638 177.734 157.522 177.522 157.291C177.329 157.041 177.233 156.588 177.233 155.934V155.616C176.463 156.271 175.539 156.81 174.46 157.233C173.382 157.638 172.39 157.84 171.485 157.84C169.675 157.84 168.241 157.416 167.181 156.569C166.142 155.702 165.622 154.181 165.622 152.005ZM195.908 154.114C195.793 152.727 195.735 150.301 195.735 146.835V145.102C195.735 142.387 195.668 140.153 195.533 138.401C195.86 138.343 196.159 138.314 196.428 138.314C197.372 138.314 197.844 138.68 197.844 139.412C197.844 139.527 197.824 139.912 197.786 140.567C197.67 142.57 197.613 144.341 197.613 145.882V150.821C197.613 153.536 197.68 155.77 197.815 157.522C197.507 157.599 197.189 157.638 196.862 157.638C196.207 157.638 195.706 157.378 195.36 156.858C194.57 155.645 193.203 153.324 191.258 149.897C189.313 146.45 187.648 143.687 186.261 141.607C186.242 142.339 186.232 145.699 186.232 151.688C186.232 154.287 186.415 156.194 186.781 157.407C186.434 157.561 186.03 157.638 185.568 157.638C185.106 157.638 184.778 157.513 184.586 157.262C184.393 157.012 184.297 156.588 184.297 155.991L184.355 150.879V145.102C184.355 141.886 184.172 139.691 183.806 138.516C184.172 138.362 184.586 138.285 185.048 138.285C185.51 138.285 185.847 138.353 186.059 138.488C186.887 138.988 188.36 141 190.478 144.524C192.596 148.029 194.406 151.225 195.908 154.114ZM205.669 155.991L205.726 150.879V145.102C205.726 143.311 205.697 141.665 205.64 140.163C202.905 140.163 201.076 140.201 200.152 140.278C200.094 140.105 200.065 139.835 200.065 139.47C200.065 139.104 200.161 138.853 200.354 138.719C200.566 138.584 200.903 138.507 201.365 138.488C201.827 138.468 202.848 138.459 204.427 138.459H207.835C210.877 138.459 212.736 138.43 213.41 138.372C213.467 138.545 213.496 138.815 213.496 139.181C213.496 139.527 213.39 139.768 213.178 139.903C212.986 140.038 212.63 140.115 212.11 140.134C211.59 140.153 210.252 140.163 208.095 140.163C207.96 142.916 207.893 144.823 207.893 145.882V151.688C207.893 154.287 208.076 156.194 208.441 157.407C208.095 157.561 207.642 157.638 207.084 157.638C206.525 157.638 206.15 157.513 205.957 157.262C205.765 157.012 205.669 156.588 205.669 155.991ZM215.542 155.991L215.6 150.879V145.102C215.6 142.387 215.533 140.153 215.398 138.401C215.725 138.343 216.12 138.314 216.582 138.314C217.526 138.314 217.998 138.68 217.998 139.412C217.998 139.527 217.978 139.912 217.94 140.567C217.824 142.57 217.767 144.341 217.767 145.882V151.688C217.767 154.287 217.949 156.194 218.315 157.407C217.969 157.561 217.516 157.638 216.958 157.638C216.399 157.638 216.024 157.513 215.831 157.262C215.639 157.012 215.542 156.588 215.542 155.991ZM233.875 154.114C233.76 152.727 233.702 150.301 233.702 146.835V145.102C233.702 142.387 233.635 140.153 233.5 138.401C233.827 138.343 234.126 138.314 234.395 138.314C235.339 138.314 235.811 138.68 235.811 139.412C235.811 139.527 235.791 139.912 235.753 140.567C235.637 142.57 235.58 144.341 235.58 145.882V150.821C235.58 153.536 235.647 155.77 235.782 157.522C235.474 157.599 235.156 157.638 234.829 157.638C234.174 157.638 233.673 157.378 233.327 156.858C232.537 155.645 231.17 153.324 229.225 149.897C227.28 146.45 225.614 143.687 224.228 141.607C224.209 142.339 224.199 145.699 224.199 151.688C224.199 154.287 224.382 156.194 224.748 157.407C224.401 157.561 223.997 157.638 223.535 157.638C223.073 157.638 222.745 157.513 222.553 157.262C222.36 157.012 222.264 156.588 222.264 155.991L222.322 150.879V145.102C222.322 141.886 222.139 139.691 221.773 138.516C222.139 138.362 222.553 138.285 223.015 138.285C223.477 138.285 223.814 138.353 224.026 138.488C224.854 138.988 226.327 141 228.445 144.524C230.563 148.029 232.373 151.225 233.875 154.114ZM254.149 155.096C254.149 155.789 253.601 156.425 252.503 157.002C251.405 157.561 250.048 157.84 248.43 157.84C245.715 157.84 243.539 156.935 241.902 155.125C240.266 153.295 239.447 150.879 239.447 147.875C239.447 144.852 240.266 142.474 241.902 140.74C243.539 138.988 245.754 138.112 248.546 138.112C250.048 138.112 251.309 138.42 252.33 139.036C253.35 139.633 253.861 140.375 253.861 141.26C253.861 142.05 253.312 142.531 252.214 142.705C251.848 141.761 251.271 141.058 250.481 140.596C249.692 140.115 248.854 139.874 247.968 139.874C246.158 139.874 244.675 140.596 243.52 142.04C242.384 143.465 241.816 145.333 241.816 147.644C241.816 149.935 242.394 151.919 243.549 153.594C244.704 155.25 246.312 156.078 248.373 156.078C249.913 156.078 251.155 155.616 252.099 154.692C252.06 152.285 251.993 150.34 251.896 148.857C252.224 148.799 252.57 148.77 252.936 148.77C253.88 148.77 254.352 149.136 254.352 149.868L254.265 151.716C254.188 152.949 254.149 154.075 254.149 155.096Z" fill="#B5A642"/>
<path d="M83.383 52.4504C80.4598 50.69 78.774 46.7815 79.3858 43.1718C82.2436 44.8529 84.0321 48.9949 83.383 52.4504Z" fill="#758800"/>
<path d="M110.168 0.928589C110.216 2.64406 109.892 4.34954 109.218 5.92784C108.544 7.50613 107.536 8.91983 106.264 10.0718C105.144 6.53219 106.605 3.06263 110.168 0.928589Z" fill="#758800"/>
<path d="M104.971 13.8916C101.763 12.2852 99.8999 9.72621 99.092 6.30334C102.398 6.6489 105.275 10.3333 104.971 13.8916Z" fill="#758800"/>
<path d="M115.978 11.8364C114.026 15.3387 110.878 16.0064 107.409 16.1559C108.38 13.3307 111.569 11.7057 115.978 11.8364Z" fill="#758800"/>
<path d="M77.3174 54.3892C73.7124 52.8669 71.9846 50.1865 72.1808 46.5535C74.7911 47.3473 77.3594 51.2465 77.3174 54.3892Z" fill="#758800"/>
<path d="M176.385 57.571C179.681 57.7998 182.128 60.1346 182.922 63.805C180.036 63.6789 176.908 60.6997 176.385 57.571Z" fill="#758800"/>
<path d="M95.3887 67.7038C96.4207 64.1175 98.8162 62.2263 102.515 61.9835C102.048 64.6826 98.7088 67.3956 95.3887 67.7038Z" fill="#758800"/>
<path d="M145.097 31.1491C145.877 27.5394 148.707 25.1719 152.167 25.1112C151.668 27.8056 148.595 30.4486 145.097 31.1491Z" fill="#758800"/>
<path d="M114.544 17.849C113.087 21.0757 110.705 22.9016 107.362 23.6441C107.647 20.0718 111.555 17.6529 114.544 17.849Z" fill="#758800"/>
<path d="M93.1895 21.7617C90.7566 19.3334 90.4437 16.4289 90.3503 13.403C93.4603 14.2995 94.7492 17.7364 93.1895 21.7617Z" fill="#758800"/>
<path d="M179.135 44.5569C178.407 47.7603 176.627 49.6935 173.742 50.6275C173.447 50.7208 173.046 51.0057 172.808 50.6275C172.696 50.45 172.845 50.0764 172.934 49.8056C173.9 46.9057 175.95 45.2573 179.135 44.5569Z" fill="#758800"/>
<path d="M117.864 31.1689C114.623 29.8754 112.965 27.5966 112.573 24.3185C115.338 24.4306 117.663 27.3584 117.864 31.1689Z" fill="#758800"/>
<path d="M138.751 64.3802C141.885 65.3141 143.739 67.5182 144.07 70.5114C144.159 71.3193 144.005 71.5014 143.244 71.1138C140.54 69.7316 139.06 67.5369 138.751 64.3802Z" fill="#758800"/>
<path d="M71.7882 35.0718C71.9097 35.1466 72.0778 35.2399 72.2552 35.3473C74.6181 36.9257 75.1691 39.508 75.7948 42.0203C75.9536 42.66 75.2858 42.4359 74.9823 42.3332C74.1914 42.0632 73.4794 41.6024 72.9092 40.9915C72.339 40.3806 71.9283 39.6385 71.7135 38.8309C71.4383 37.7915 71.3295 36.715 71.3913 35.6415C71.4007 35.3894 71.4007 35.1419 71.7882 35.0718Z" fill="#758800"/>
<path d="M80.5486 17.6039C83.7286 18.5145 85.7926 21.3069 85.5591 24.3889C82.6172 23.6184 80.2964 20.4757 80.5486 17.6039Z" fill="#758800"/>
<path d="M141.969 14.8594C138.592 14.0002 136.566 11.6887 136.323 8.54132C139.228 8.80282 141.46 11.2544 141.969 14.8594Z" fill="#758800"/>
<path d="M118.069 2.4306C117.856 3.80809 117.236 5.09048 116.289 6.11369C115.342 7.13689 114.112 7.85436 112.755 8.17429C112.195 8.29571 111.821 8.43113 112.013 7.53922C112.38 6.17103 113.157 4.94802 114.24 4.03471C115.322 3.1214 116.659 2.56159 118.069 2.4306Z" fill="#758800"/>
<path d="M170.3 24.5261C171.869 22.1632 173.956 21.0518 176.637 21.0332C176.959 21.0332 177.389 20.8977 177.571 21.2153C177.828 21.6309 177.384 21.9251 177.188 22.2239C175.665 24.5074 173.233 25.3479 170.3 24.5261Z" fill="#758800"/>
<path d="M57.065 64.6762C56.598 64.5875 55.8696 64.8863 55.6408 64.368C55.4119 63.8497 56.0657 63.4341 56.4113 63.0652C57.072 62.2731 57.9371 61.6772 58.9126 61.3421C59.8882 61.0071 60.9368 60.9457 61.9448 61.1646C62.2483 61.2207 62.706 61.1133 62.8134 61.5382C62.9208 61.9631 62.5192 62.1219 62.2997 62.3601C61.6526 63.109 60.8475 63.7052 59.9423 64.1057C59.0372 64.5062 58.0545 64.701 57.065 64.6762Z" fill="#758800"/>
<path d="M145.13 13.2034C143.505 10.5324 143.818 7.64652 145.854 5.73196C146.125 5.48447 146.377 5.02684 146.788 5.19028C147.124 5.31636 147.054 5.77866 147.101 6.12421C147.316 7.3765 147.251 8.6609 146.91 9.88498C146.569 11.1091 145.961 12.2424 145.13 13.2034Z" fill="#758800"/>
<path d="M78.3169 25.2089C81.4082 24.5271 83.9205 25.6198 85.1346 28.0574C85.4475 28.6878 85.6343 29.1734 84.5883 29.08C83.301 29.0173 82.0506 28.6294 80.9539 27.9524C79.8571 27.2754 78.9499 26.3315 78.3169 25.2089Z" fill="#758800"/>
<path d="M192.117 48.7398C191.327 51.3641 187.741 53.2553 185.313 52.3354C184.482 52.0225 185.065 51.6676 185.276 51.4015C186.821 49.2814 189.324 48.3242 192.117 48.7398Z" fill="#758800"/>
<path d="M95.5897 35.1105C92.9934 33.4715 91.9847 31.3748 92.4424 28.6524C92.4891 28.3769 92.4424 28.008 92.7179 27.8679C93.1101 27.6858 93.3249 28.0827 93.5677 28.2835C95.585 29.9505 96.3182 32.3788 95.5897 35.1105Z" fill="#758800"/>
<path d="M126.727 9.69029C127.38 8.5454 128.347 7.61123 129.513 6.9981C130.68 6.38496 131.998 6.11846 133.311 6.23007C133.983 6.31412 133.997 6.54294 133.745 7.06594C132.587 9.43813 129.332 10.6616 126.727 9.69029Z" fill="#758800"/>
<path d="M136.856 51.5086C136.454 51.4152 135.721 51.7655 135.501 51.1724C135.338 50.7381 135.917 50.3412 136.23 49.977C137.785 48.1698 139.769 47.6421 142.062 48.0344C142.931 48.1745 142.889 48.5014 142.37 49.0524C140.928 50.6541 139.172 51.602 136.856 51.5086Z" fill="#758800"/>
<path d="M87.0674 26.3916V26.0741C87.0954 24.4911 88.2862 21.8994 88.9352 22.0489C89.5843 22.1983 90.2147 25.1542 89.9859 26.443C89.9416 26.7814 89.8586 27.1136 89.7384 27.433C89.3789 28.2455 89.1921 29.6231 88.3375 29.5577C87.5624 29.4923 87.4036 28.1147 87.1981 27.2228C87.1351 26.9492 87.0914 26.6714 87.0674 26.3916Z" fill="#758800"/>
<path d="M83.9293 68.258C82.2623 65.8812 82.0288 63.5884 83.3643 61.1274C83.8313 60.2542 84.1161 60.3196 84.5831 61.1555C85.8719 63.4623 85.7131 65.8952 83.9293 68.258Z" fill="#758800"/>
<path d="M173.872 31.5259C173.447 31.4231 172.798 31.736 172.565 31.2317C172.331 30.7274 172.91 30.3818 173.19 30.0129C174.591 28.1964 176.459 27.4866 178.691 27.622C179.499 27.6687 179.588 27.9442 179.158 28.5887C178.599 29.4866 177.82 30.2273 176.895 30.7412C175.971 31.255 174.93 31.5251 173.872 31.5259Z" fill="#758800"/>
<path d="M93.6423 62.3678C94.3288 59.4446 96.3461 57.6141 98.9658 57.4227C99.7036 57.3713 99.937 57.4974 99.6242 58.2865C99.1562 59.4915 98.3341 60.5265 97.2663 61.255C96.1985 61.9836 94.935 62.3716 93.6423 62.3678Z" fill="#758800"/>
<path d="M159.952 46.7462C160.186 49.4826 158.878 51.7754 156.553 52.8167C155.829 53.1483 155.619 53.0269 155.619 52.233C155.603 50.9603 156.024 49.7207 156.813 48.7218C157.602 47.7229 158.71 47.0255 159.952 46.7462Z" fill="#758800"/>
<path d="M170.841 37.5435C170.449 37.5062 170.057 37.5062 169.678 37.4315C169.09 37.3101 168.184 37.4315 168.072 36.7871C167.96 36.1426 168.758 35.8064 169.272 35.4469C170.981 34.2421 172.788 34.1814 174.67 34.9799C175.464 35.3301 175.679 35.6757 174.81 36.2174C173.645 37.0379 172.265 37.4989 170.841 37.5435Z" fill="#758800"/>
<path d="M156.636 59.5413C158.971 60.7321 160.246 62.5626 160.372 65.201C160.414 66.0742 160.274 66.3824 159.354 65.9107C156.902 64.6499 155.721 61.9789 156.636 59.5413Z" fill="#758800"/>
<path d="M174.204 69.9905C174.115 70.3081 174.423 70.7937 173.979 71.0039C173.653 71.158 173.34 70.8498 173.045 70.6863C171.033 69.5376 170.104 67.7818 170.09 65.4843C170.09 64.6858 170.304 64.5504 171.024 64.8913C171.983 65.3515 172.792 66.0755 173.355 66.9786C173.918 67.8816 174.212 68.9263 174.204 69.9905Z" fill="#758800"/>
<path d="M180.62 52.2267C181.35 52.2529 182.068 52.427 182.729 52.7384C183.391 53.0498 183.982 53.4921 184.468 54.0385C184.608 54.1926 184.678 54.4027 184.444 54.5055C183.231 55.1544 181.84 55.3936 180.48 55.1873C179.522 54.992 178.609 54.6216 177.785 54.0946C177.127 53.6976 177.248 53.4128 177.827 53.0859C178.68 52.5886 179.635 52.2945 180.62 52.2267Z" fill="#758800"/>
<path d="M148.138 58.8307C149.292 58.9709 150.377 59.4525 151.256 60.2137C152.135 60.9749 152.766 61.9811 153.069 63.1034C153.256 63.8786 152.947 63.9159 152.34 63.8365C151.225 63.6597 150.182 63.1714 149.332 62.4278C148.482 61.6843 147.859 60.7158 147.535 59.6338C147.372 59.0128 147.381 58.6252 148.138 58.8307Z" fill="#758800"/>
<path d="M138.593 27.4232C138.724 28.2731 138.383 28.5159 137.468 27.9835C136.532 27.4876 135.756 26.7366 135.229 25.8175C134.703 24.8985 134.447 23.8491 134.493 22.7909C134.493 21.8009 134.885 21.885 135.53 22.2492C137.472 23.3419 138.495 25.009 138.593 27.4232Z" fill="#758800"/>
<path d="M143.22 5.797C143.227 5.89338 143.227 5.99014 143.22 6.08652C143.08 6.843 143.113 7.89368 142.356 8.10382C141.815 8.25791 141.423 7.25861 141.002 6.74494C139.947 5.47479 139.755 3.94314 139.625 2.35545C139.555 1.53826 139.924 1.60364 140.493 1.82311C141.292 2.13794 141.979 2.68456 142.465 3.39271C142.951 4.10086 143.214 4.93817 143.22 5.797Z" fill="#758800"/>
<path d="M169.963 48.1608C169.963 49.9119 166.858 52.6904 165.023 52.6437C164.35 52.6437 164.495 52.2094 164.556 51.8405C164.845 49.7064 167.166 47.6985 169.291 47.7218C169.608 47.7265 169.987 47.6471 169.963 48.1608Z" fill="#758800"/>
<path d="M193.881 53.6947C194.918 53.8488 196.618 53.8955 196.739 54.8295C196.861 55.7634 195.254 56.2304 194.194 56.5853C192.845 57.0149 191.589 56.6226 190.365 56.0576C189.847 55.8148 189.655 55.5906 190.202 55.1236C191.228 54.2385 192.527 53.7339 193.881 53.6947Z" fill="#758800"/>
<path d="M92.5918 56.3547C92.3863 57.4834 91.9154 58.5471 91.218 59.4581C90.5206 60.3691 89.6166 61.1012 88.5806 61.5941C88.0436 61.8743 87.8335 61.8276 87.7354 61.1785C87.659 60.5237 87.7323 59.8601 87.9499 59.2378C88.1674 58.6155 88.5235 58.0508 88.9912 57.5862C89.4589 57.1216 90.026 56.7694 90.6498 56.5561C91.2735 56.3427 91.9376 56.2739 92.5918 56.3547Z" fill="#758800"/>
<path d="M103.239 68.8445C102.725 68.9005 102.576 68.7464 102.66 68.1814C102.968 66.1641 105.522 63.9787 107.563 64.0067C108.03 64.0067 108.123 64.1654 108.072 64.6137C107.853 66.5983 105.28 68.8678 103.239 68.8445Z" fill="#758800"/>
<path d="M69.0944 62.8837C68.6274 62.9397 68.394 62.8837 68.506 62.258C68.8796 60.2267 71.121 58.2234 73.2224 58.0553C74.0069 58.0039 73.9976 58.3728 73.8668 58.9425C73.3952 60.9738 71.1537 62.823 69.0944 62.8837Z" fill="#758800"/>
<path d="M132.027 12.0399C132.027 13.8097 128.609 16.8403 126.979 16.5181C126.451 16.4153 126.582 16.0511 126.624 15.7382C126.904 13.6416 129.216 11.6196 131.294 11.6196C131.644 11.6196 132.008 11.5636 132.027 12.0399Z" fill="#758800"/>
<path d="M54.6227 74.4264C54.2258 71.7554 55.2297 69.8455 57.5506 68.7014C58.3631 68.2998 58.6526 68.3698 58.6292 69.3505C58.5732 71.8534 57.1723 73.6746 54.6227 74.4264Z" fill="#758800"/>
<path d="M123.533 1.72086C123.603 3.50934 122.777 4.90557 121.628 6.17572C121.208 6.64269 120.974 6.56331 120.694 6.00762C120.241 5.07661 120.133 4.01498 120.389 3.01184C120.646 2.00871 121.25 1.12924 122.095 0.530097C122.431 0.282605 122.791 -0.165683 123.23 0.0631303C123.584 0.240578 123.454 0.77292 123.519 1.14649C123.535 1.33751 123.54 1.5293 123.533 1.72086Z" fill="#758800"/>
<path d="M155.711 18.5834C155.244 18.6581 155.044 18.4807 155.114 17.939C155.389 15.931 157.944 13.7643 160.022 13.769C160.488 13.769 160.619 13.8764 160.573 14.3434C160.376 16.2906 157.78 18.5834 155.711 18.5834Z" fill="#758800"/>
<path d="M166.741 14.1708C166.848 16.1227 166.101 17.5003 164.999 18.7471C164.532 19.2748 164.229 19.3822 163.879 18.607C163.499 17.7829 163.385 16.8611 163.552 15.9692C163.719 15.0774 164.16 14.2596 164.812 13.6291C165.279 13.2042 165.821 12.5504 166.41 12.7839C166.998 13.0174 166.657 13.8393 166.741 14.1708Z" fill="#758800"/>
<path d="M181.455 36.417C180.909 38.8265 179.489 40.3442 177.08 40.9466C176.281 41.1474 175.894 41.124 176.146 40.092C176.375 38.9072 177.059 37.8592 178.052 37.1724C179.044 36.4855 180.266 36.2144 181.455 36.417Z" fill="#758800"/>
<path d="M188.395 47.4856C187.816 47.6023 187.741 47.3548 187.844 46.8365C188.236 44.7725 190.585 42.7599 192.635 42.7039C193.279 42.7039 193.368 42.9047 193.251 43.4697C192.831 45.5383 190.459 47.5183 188.395 47.4856Z" fill="#758800"/>
<path d="M126.62 44.9864C127.241 42.1566 128.987 40.4942 131.378 40.3167C132.121 40.256 132.214 40.4708 132.046 41.1152C131.42 43.5014 129.342 45.0471 126.62 44.9864Z" fill="#758800"/>
<path d="M69.8222 57.5751C68.9139 58.3059 67.8144 58.7597 66.6551 58.8822C65.4958 59.0048 64.3257 58.7909 63.2847 58.2662C62.4768 57.8366 62.9345 57.5611 63.308 57.2296C65.2459 55.4644 67.8796 55.6092 69.8222 57.5751Z" fill="#758800"/>
<path d="M167.396 20.8291C167.56 19.7356 168.102 18.7342 168.928 17.9989C169.753 17.2635 170.811 16.8407 171.916 16.8038C172.541 16.8038 172.817 16.8926 172.555 17.6257C172.239 18.6001 171.666 19.4715 170.897 20.1485C170.128 20.8255 169.191 21.2832 168.185 21.4735C167.606 21.6183 167.181 21.5809 167.396 20.8291Z" fill="#758800"/>
<path d="M78.6249 68.3879C78.7229 70.3678 77.789 71.722 76.3834 72.8334C75.7764 73.3004 75.4962 73.2023 75.3421 72.4272C74.9779 70.6153 75.3421 69.037 76.7056 67.7575C77.1726 67.3372 77.6396 66.6368 78.2653 66.8796C78.891 67.1224 78.5362 67.9303 78.6249 68.3879Z" fill="#758800"/>
<path d="M151.49 17.0916C151.855 17.1616 152.396 16.8768 152.625 17.3391C152.812 17.7033 152.41 18.0442 152.238 18.3804C151.196 20.3884 149.375 21.0188 147.292 21.1822C146.358 21.2616 146.662 20.7153 146.825 20.2483C147.381 18.4738 149.305 17.1616 151.49 17.0916Z" fill="#758800"/>
<path d="M70.8828 28.3745C71.9492 28.4381 72.958 28.8796 73.7282 29.6199C74.4985 30.3602 74.9797 31.3507 75.0855 32.4137C75.1275 33.0955 75.0154 33.4364 74.1983 33.1796C73.2553 32.9035 72.398 32.3923 71.707 31.6939C71.0159 30.9955 70.5138 30.1328 70.2477 29.187C70.0002 28.4772 70.2851 28.2951 70.8828 28.3745Z" fill="#758800"/>
<path d="M88.87 18.9597C88.9354 19.5901 88.7953 19.8937 88.0528 19.6462C87.1056 19.3801 86.2412 18.8788 85.5399 18.1889C84.8385 17.499 84.3231 16.6429 84.0415 15.7003C83.7707 14.9065 84.1256 14.7664 84.8167 14.8271C85.8755 14.9156 86.8673 15.3816 87.6113 16.1402C88.3553 16.8987 88.802 17.8994 88.87 18.9597Z" fill="#758800"/>
<path d="M150.425 38.7531C152.139 36.7965 154.53 36.3202 156.762 37.4269C157.533 37.8098 157.57 38.0853 156.907 38.627C155.006 40.154 152.573 40.224 150.425 38.7531Z" fill="#758800"/>
<path d="M69.3741 44.4384C66.9692 43.5605 65.7458 41.5993 66.0026 39.1384C66.0727 38.4659 66.2174 38.2932 66.8852 38.6014C69.122 39.624 70.1446 41.9682 69.3741 44.4384Z" fill="#758800"/>
<path d="M132.181 19.2411C132.321 20.8895 131.527 22.183 130.486 23.4158C129.841 24.177 129.599 23.8267 129.309 23.1683C128.912 22.2662 128.838 21.2551 129.098 20.3046C129.358 19.3541 129.937 18.5219 130.738 17.9476C131.079 17.6955 131.443 17.2472 131.877 17.4386C132.312 17.6301 132.111 18.2091 132.176 18.6154C132.194 18.8235 132.196 19.0327 132.181 19.2411Z" fill="#758800"/>
<path d="M106.241 61.5658C105.541 61.6592 105.307 61.4491 105.597 60.6786C105.962 59.6893 106.631 58.8416 107.509 58.2575C108.387 57.6733 109.428 57.3831 110.481 57.4285C111.112 57.4752 111.35 57.5966 111.06 58.3017C110.673 59.2635 110.007 60.0878 109.149 60.6692C108.29 61.2507 107.278 61.5629 106.241 61.5658Z" fill="#758800"/>
<path d="M123.472 21.8841C123.552 22.5052 123.435 22.7947 122.683 22.5519C121.717 22.2825 120.837 21.7683 120.127 21.0591C119.418 20.3498 118.904 19.4695 118.635 18.5033C118.396 17.7421 118.723 17.7095 119.326 17.7281C120.404 17.7996 121.419 18.2607 122.182 19.0254C122.945 19.79 123.403 20.8061 123.472 21.8841Z" fill="#758800"/>
<path d="M57.3406 58.5496C56.6915 58.6196 56.5514 58.3908 56.7616 57.7091C57.0453 56.7493 57.5911 55.8877 58.3377 55.2211C59.0842 54.5546 60.0019 54.1095 60.9876 53.936C61.7161 53.8286 61.9636 53.992 61.8095 54.7672C61.5824 55.8004 61.022 56.7304 60.2145 57.4139C59.407 58.0974 58.3972 58.4964 57.3406 58.5496Z" fill="#758800"/>
<path d="M95.9912 19.329C97.0591 19.3899 98.0688 19.8354 98.8336 20.5831C99.5985 21.3308 100.067 22.3301 100.152 23.3963C100.217 24.1948 99.9838 24.3302 99.26 24.1154C98.3161 23.8387 97.4592 23.324 96.7715 22.6207C96.0838 21.9175 95.5884 21.0493 95.3328 20.0995C95.09 19.3243 95.4309 19.245 95.9912 19.329Z" fill="#758800"/>
<path d="M158.443 20.4083C159.074 23.2101 158.443 25.1013 156.533 26.4788C155.852 26.9738 155.562 26.9178 155.394 26.0446C154.936 23.5603 155.908 21.6224 158.443 20.4083Z" fill="#758800"/>
<path d="M148.866 51.4699C148.333 51.4979 148.049 51.4232 148.226 50.7274C148.511 49.7343 149.068 48.8408 149.835 48.1483C150.602 47.4559 151.547 46.9921 152.564 46.8096C153.442 46.6602 153.451 47.0244 153.339 47.6735C153.116 48.7108 152.557 49.6454 151.748 50.3319C150.939 51.0184 149.926 51.4185 148.866 51.4699Z" fill="#758800"/>
<path d="M185.798 42.6176C185.658 44.7329 184.58 46.1712 182.684 47.0677C182.016 47.3853 181.726 47.2919 181.652 46.5167C181.58 45.481 181.876 44.4532 182.487 43.6143C183.099 42.7754 183.987 42.1794 184.995 41.9311C185.756 41.7677 185.85 41.8564 185.798 42.6176Z" fill="#758800"/>
<path d="M71.27 67.3849C71.2856 66.3895 71.6324 65.4276 72.2556 64.6513C72.8789 63.875 73.743 63.3285 74.7116 63.0982C75.6455 62.8647 75.8323 63.2289 75.6455 64.0648C75.4885 64.9601 75.0935 65.7966 74.5019 66.4868C73.9104 67.1769 73.1441 67.6952 72.2833 67.9873C71.4008 68.3235 71.0879 68.104 71.27 67.3849Z" fill="#758800"/>
<path d="M87.1097 39.2186C86.1811 39.2389 85.2659 38.9944 84.4713 38.5135C84.0043 38.266 83.2105 38.1212 83.2385 37.6309C83.2759 37.0005 84.0324 36.7343 84.6161 36.4915C85.359 36.1765 86.1834 36.1085 86.9679 36.2977C87.7523 36.4869 88.4552 36.9232 88.9729 37.5422C89.8041 38.5462 89.6967 38.8544 88.4125 39.0739C87.9829 39.1252 87.5439 39.1486 87.1097 39.2186Z" fill="#758800"/>
<path d="M77.0371 32.3021C77.8207 31.5954 78.7937 31.133 79.8366 30.9721C80.8795 30.8111 81.9467 30.9586 82.9069 31.3962C83.6774 31.7138 83.7521 32.0266 83.1404 32.6197C81.3519 34.3428 78.8956 34.2447 77.0371 32.3021Z" fill="#758800"/>
<path d="M160.946 43.1783C161.89 43.1893 162.803 43.5178 163.537 44.1108C164.272 44.7038 164.785 45.5267 164.995 46.4471C165.167 47.1849 164.957 47.409 164.22 47.3577C163.316 47.2927 162.451 46.9663 161.729 46.4182C161.008 45.8702 160.462 45.1241 160.157 44.271C159.807 43.3698 160.017 42.9869 160.946 43.1783Z" fill="#758800"/>
<path d="M176.982 64.85C177.973 64.8383 178.939 65.1658 179.719 65.7782C180.498 66.3905 181.045 67.251 181.269 68.2168C181.423 68.9593 181.241 69.1741 180.489 69.1041C179.556 69.0306 178.666 68.6802 177.933 68.0979C177.2 67.5156 176.657 66.7277 176.375 65.8353C176.141 65.1582 176.174 64.7753 176.982 64.85Z" fill="#758800"/>
<path d="M67.4129 48.945C67.1934 47.7916 67.6324 47.6141 68.655 48.1184C69.4569 48.4814 70.1326 49.075 70.5958 49.8235C71.0591 50.572 71.2889 51.4415 71.256 52.3211C71.256 53.1197 71.0599 53.3952 70.238 53.0169C68.4822 52.2324 67.4269 50.9809 67.4129 48.945Z" fill="#758800"/>
<path d="M61.9262 42.3223C61.7907 41.3136 62.253 41.2763 63.1029 41.6779C63.9361 42.0348 64.6407 42.6372 65.1229 43.4047C65.6051 44.1722 65.842 45.0684 65.802 45.974C65.802 46.8612 65.4844 46.9079 64.742 46.6184C63.8833 46.2852 63.1503 45.692 62.6455 44.9217C62.1406 44.1514 61.8891 43.2425 61.9262 42.3223Z" fill="#758800"/>
<path d="M97.6769 12.3298C97.6116 12.7594 97.8404 13.3945 97.3454 13.628C96.8504 13.8615 96.4488 13.3758 96.0566 13.1143C95.3322 12.6485 94.7634 11.9769 94.4231 11.1857C94.0828 10.3945 93.9866 9.51973 94.1467 8.67348C94.2727 7.97303 94.5342 7.86563 95.1133 8.18316C96.743 9.07507 97.6863 10.3826 97.6769 12.3298Z" fill="#758800"/>
<path d="M191.57 66.74C191.645 66.3757 191.393 65.806 191.86 65.5866C192.327 65.3671 192.686 65.778 193.055 65.9835C193.863 66.4139 194.504 67.101 194.878 67.9365C195.252 68.7719 195.337 69.7081 195.119 70.5971C194.979 71.1995 194.792 71.3116 194.237 71.0127C192.537 70.1068 191.566 68.7619 191.57 66.74Z" fill="#758800"/>
<path d="M141.422 59.2122C142.354 59.2387 143.251 59.5742 143.971 60.1659C144.691 60.7577 145.194 61.5721 145.401 62.481C145.616 63.3262 145.359 63.4896 144.556 63.3916C143.677 63.3291 142.836 63.0093 142.137 62.4721C141.439 61.9348 140.914 61.2038 140.629 60.3703C140.227 59.2963 140.325 59.1702 141.422 59.2122Z" fill="#758800"/>
<path d="M123.65 12.2786C123.58 12.6942 123.827 13.3573 123.43 13.6095C122.917 13.9317 122.436 13.3807 122.006 13.0912C120.47 12.0498 119.97 10.5462 120.138 8.74836C120.204 7.94051 120.535 7.84712 121.18 8.20201C122.744 9.07991 123.65 10.3594 123.65 12.2786Z" fill="#758800"/>
<path d="M148.618 65.7433C149.578 65.7521 150.507 66.0847 151.255 66.6873C152.002 67.2899 152.525 68.1271 152.737 69.0634C152.882 69.7219 152.872 70.0721 152.018 69.9974C151.089 69.9392 150.201 69.5991 149.471 69.0225C148.741 68.4459 148.204 67.6603 147.932 66.7706C147.61 65.8367 147.67 65.734 148.618 65.7433Z" fill="#758800"/>
<path d="M98.3915 14.5076C98.2981 13.7744 98.5176 13.4756 99.3722 13.7651C100.257 14.0592 101.027 14.6224 101.575 15.376C102.124 16.1296 102.423 17.0358 102.431 17.9678C102.431 18.7009 102.244 18.9017 101.497 18.6822C100.591 18.426 99.7961 17.8778 99.2345 17.1228C98.6729 16.3678 98.3766 15.4484 98.3915 14.5076Z" fill="#758800"/>
<path d="M63.6494 69.9865C63.1498 69.9351 62.3933 70.0565 62.1318 69.5195C61.8703 68.9825 62.496 68.5856 62.7949 68.1559C63.7521 66.7784 65.153 66.4048 66.7361 66.4188C67.4459 66.4188 67.5346 66.7177 67.3478 67.3294C67.095 68.1087 66.5998 68.7867 65.9345 69.2647C65.2692 69.7427 64.4686 69.9956 63.6494 69.9865Z" fill="#758800"/>
<path d="M102.753 50.5555C100.6 50.4061 99.0544 48.9258 98.9143 47.0673C98.8583 46.3108 99.1478 46.2827 99.7595 46.3855C100.614 46.4805 101.423 46.8188 102.091 47.3601C102.759 47.9015 103.258 48.6231 103.528 49.4394C103.887 50.4247 103.593 50.7049 102.753 50.5555Z" fill="#758800"/>
<path d="M193.097 59.1346C194.068 59.1257 195.013 59.4535 195.769 60.0622C196.526 60.6709 197.049 61.5229 197.249 62.4734C197.412 63.1645 197.249 63.3233 196.581 63.3093C195.646 63.2778 194.742 62.9619 193.991 62.4037C193.241 61.8456 192.678 61.0716 192.378 60.1853C192.056 59.298 192.257 58.9992 193.097 59.1346Z" fill="#758800"/>
<path d="M185.467 57.3843C186.38 57.4037 187.261 57.7242 187.973 58.2959C188.684 58.8676 189.187 59.6586 189.403 60.5457C189.595 61.2835 189.492 61.6197 188.605 61.5497C187.721 61.489 186.874 61.1704 186.17 60.6334C185.465 60.0964 184.933 59.3645 184.64 58.5284C184.257 57.4684 184.356 57.347 185.467 57.3843Z" fill="#758800"/>
<path d="M103.664 31.2785C103.662 30.3308 104.013 29.4164 104.65 28.7143C105.286 28.0121 106.162 27.5727 107.105 27.482C107.885 27.4027 108.207 27.6128 107.969 28.444C107.781 29.2502 107.393 29.9963 106.841 30.6138C106.29 31.2314 105.592 31.7007 104.813 31.9789C103.93 32.3198 103.5 32.2451 103.664 31.2785Z" fill="#758800"/>
<path d="M162.058 32.3428C162.508 32.3945 162.953 32.4836 163.388 32.609C163.953 32.8098 164.892 32.7631 164.943 33.4215C164.995 34.0799 164.234 34.5142 163.631 34.8224C162.935 35.2379 162.111 35.3851 161.314 35.2363C160.517 35.0876 159.802 34.6532 159.302 34.0146C159.12 33.8091 158.761 33.4822 158.99 33.2861C159.83 32.5857 160.89 32.4409 162.058 32.3428Z" fill="#758800"/>
<path d="M200.377 72.7927C200.369 73.0071 200.347 73.2208 200.311 73.4324C200.181 74.2216 199.845 74.3663 199.135 73.8994C198.337 73.374 197.718 72.6179 197.361 71.7319C197.004 70.8458 196.925 69.872 197.136 68.9402C197.29 68.3425 197.51 68.2304 198.037 68.5433C199.532 69.4118 200.503 70.5839 200.377 72.7927Z" fill="#758800"/>
<path d="M185.336 64.1666C186.263 64.1693 187.163 64.4786 187.896 65.0461C188.629 65.6137 189.154 66.4077 189.389 67.3046C189.66 68.2386 189.338 68.4067 188.483 68.3226C187.602 68.2402 186.763 67.9025 186.071 67.351C185.378 66.7994 184.862 66.0579 184.584 65.2173C184.267 64.3207 184.537 64.0312 185.336 64.1666Z" fill="#758800"/>
<path d="M126.092 33.4311C126.022 34.7713 125.648 36.0881 124.63 36.2329C123.869 36.3636 123.552 34.944 123.229 34.0848C123.019 33.5319 123.006 32.9232 123.192 32.3617C123.421 31.708 123.318 30.5826 124.051 30.5545C124.784 30.5265 125.419 31.4044 125.746 32.2029C125.892 32.603 126.008 33.0136 126.092 33.4311Z" fill="#758800"/>
<path d="M89.6594 67.2813C89.6809 67.0462 89.7152 66.8123 89.7622 66.5809C89.9536 65.8991 89.8789 64.8158 90.612 64.713C91.3452 64.6103 91.8822 65.4975 92.2651 66.198C92.3367 66.3273 92.3992 66.4615 92.4519 66.5996C92.9189 67.9444 92.5406 69.0978 91.658 70.1298C91.4899 70.326 91.2238 70.6622 90.9483 70.3493C90.182 69.5031 89.7273 68.4209 89.6594 67.2813Z" fill="#758800"/>
<path d="M91.387 45.9046C90.9201 45.8486 90.1402 46.0214 89.8647 45.4657C89.5892 44.91 90.2009 44.5037 90.4998 44.0648C90.8534 43.5345 91.3358 43.1026 91.9017 42.8094C92.4677 42.5162 93.0987 42.3713 93.7359 42.3884C94.2028 42.3884 94.7959 42.1316 95.0574 42.6312C95.3189 43.1309 94.922 43.5651 94.6838 43.9854C94.3763 44.5879 93.902 45.0891 93.3174 45.4294C92.7329 45.7697 92.0628 45.9347 91.387 45.9046Z" fill="#758800"/>
<path d="M126.685 5.52606C126.106 5.63813 125.947 5.37196 125.984 4.79292C126.076 3.88528 126.489 3.04014 127.148 2.40933C127.807 1.77853 128.669 1.40341 129.58 1.35138C130.159 1.35138 130.355 1.51015 130.304 2.11253C130.225 3.02664 129.813 3.87978 129.145 4.50933C128.478 5.13887 127.602 5.50078 126.685 5.52606Z" fill="#758800"/>
<path d="M162.025 25.6446C162.104 24.7601 162.499 23.9334 163.137 23.3154C163.774 22.6974 164.613 22.3291 165.5 22.2778C166.149 22.2077 166.359 22.3478 166.303 23.0389C166.213 23.9418 165.805 24.7833 165.151 25.4123C164.497 26.0413 163.641 26.4167 162.735 26.4711C162.067 26.5038 161.81 26.289 162.025 25.6446Z" fill="#758800"/>
<path d="M77.2096 25.6749C77.2656 27.1085 76.8593 28.4487 75.8834 28.6215C74.9074 28.7943 74.7393 27.3327 74.4264 26.4688C74.2904 26.1019 74.2549 25.7053 74.3237 25.3201C74.4918 24.4935 74.4638 23.0973 75.2576 23.088C76.3363 23.088 76.92 24.274 77.1909 25.3667C77.2173 25.4673 77.2237 25.572 77.2096 25.6749Z" fill="#758800"/>
<path d="M107.516 33.9876C107.609 35.6967 106.656 36.8267 105.232 37.6906C104.672 38.0315 104.41 37.9708 104.21 37.303C103.935 36.4613 104.002 35.5455 104.394 34.752C104.787 33.9586 105.475 33.3506 106.311 33.0583C107.208 32.7081 107.773 32.7455 107.516 33.9876Z" fill="#758800"/>
<path d="M169.413 27.0777C170.347 27.1524 171.841 27.512 171.892 28.5393C171.939 29.4732 170.393 29.8842 169.333 29.9916C168.75 30.0651 168.158 29.9864 167.615 29.763C167.071 29.5395 166.595 29.1791 166.233 28.7168C165.901 28.2918 168.012 27.0777 169.413 27.0777Z" fill="#758800"/>
<path d="M189.104 36.2278C189.015 37.1119 188.613 37.935 187.971 38.5495C187.329 39.164 186.489 39.5296 185.602 39.5806C184.986 39.6273 184.715 39.5339 184.775 38.8241C184.869 37.9211 185.282 37.0811 185.939 36.4548C186.596 35.8284 187.455 35.4565 188.362 35.4059C189.048 35.3779 189.24 35.6441 189.104 36.2278Z" fill="#758800"/>
<path d="M137.701 32.9425C136.132 32.9425 134.969 32.0693 134.208 30.5237C133.895 29.8932 134.096 29.6644 134.722 29.529C135.539 29.3204 136.404 29.4173 137.155 29.8017C137.906 30.1861 138.49 30.8314 138.799 31.6164C139.298 32.7838 139.177 32.9659 137.701 32.9425Z" fill="#758800"/>
<path d="M171.383 61.8097C170.646 61.8968 169.901 61.7532 169.249 61.3988C168.782 61.1653 167.997 61.0019 167.997 60.5162C167.997 59.8765 168.702 59.5263 169.277 59.2321C169.802 58.9612 170.392 58.8431 170.981 58.8912C172.055 58.9706 173.937 60.2034 173.699 60.7917C173.255 61.8798 172.018 61.6323 171.383 61.8097Z" fill="#758800"/>
<path d="M61.114 74.6037C61.0948 73.8334 61.3567 73.0824 61.8508 72.4911C62.345 71.8998 63.0376 71.5088 63.7991 71.391C64.1587 71.3256 64.5462 71.1108 64.733 71.6992C65.0459 72.6751 64.196 74.6177 63.0566 75.3228C62.5896 75.617 62.0713 76.1634 61.5016 75.8832C61.0767 75.6777 61.2074 75.0146 61.114 74.6037Z" fill="#758800"/>
<path d="M182.604 30.0292C183.73 30.0292 185.785 31.0565 185.537 31.5048C184.963 32.5601 183.833 32.8263 182.735 32.9804C182.687 32.9874 182.638 32.9874 182.59 32.9804C181.498 32.8637 180.419 32.5975 179.789 31.6589C179.471 31.2246 181.484 30.0479 182.604 30.0292Z" fill="#758800"/>
<path d="M110.967 68.7357C110.967 70.4821 110.033 71.5748 108.684 72.4154C107.983 72.845 107.75 72.5414 107.586 71.911C107.352 71.109 107.427 70.2486 107.795 69.4986C108.163 68.7487 108.798 68.1634 109.576 67.8578C110.514 67.4655 111.233 67.3861 110.967 68.7357Z" fill="#758800"/>
<path d="M171.103 44.131C170.334 44.1797 169.569 43.9989 168.904 43.6114C168.239 43.2239 167.704 42.6473 167.367 41.9549C166.853 41.021 167.171 40.7641 168.086 40.6661C168.865 40.5319 169.666 40.6722 170.352 41.0632C171.039 41.4541 171.568 42.0714 171.85 42.8095C172.308 43.8228 172.158 44.3551 171.103 44.131Z" fill="#758800"/>
<path d="M138.322 20.6977C137.234 20.5109 136.048 20.3848 135.478 19.2968C135.254 18.8578 137.383 17.7418 138.424 17.7511C139.466 17.7604 141.464 18.8018 141.226 19.236C140.6 20.2634 139.48 20.5389 138.322 20.6977Z" fill="#758800"/>
<path d="M86.6102 49.9061C86.6102 48.5473 86.8904 48.3978 88.1512 48.9722C89.5848 49.6493 90.1825 50.8401 90.3226 52.3297C90.3833 52.9414 90.2246 53.2076 89.5148 53.1235C88.7102 53.0627 87.9598 52.6947 87.4191 52.0957C86.8784 51.4968 86.5888 50.7128 86.6102 49.9061Z" fill="#758800"/>
<path d="M154.003 10.7747C154.596 10.7747 154.727 11.0082 154.638 11.5919C154.526 12.418 154.128 13.1786 153.512 13.741C152.897 14.3034 152.104 14.6319 151.271 14.6692C150.636 14.7159 150.393 14.5525 150.435 13.8801C150.503 12.9979 150.916 12.1778 151.583 11.5969C152.251 11.0159 153.12 10.7206 154.003 10.7747Z" fill="#758800"/>
<path d="M113.161 32.4921C113.269 32.9871 113.11 33.2066 112.568 33.2019C112.093 33.1749 111.629 33.0457 111.208 32.8232C110.788 32.6007 110.42 32.29 110.13 31.9124C109.84 31.5347 109.635 31.0991 109.529 30.635C109.423 30.1709 109.418 29.6894 109.514 29.2233C109.655 28.6303 109.902 28.5789 110.448 28.7564C111.243 29.0024 111.937 29.4994 112.427 30.1728C112.916 30.8462 113.173 31.6599 113.161 32.4921Z" fill="#758800"/>
<path d="M159.139 10.0372C159.107 11.1953 158.037 12.9931 157.589 12.7503C156.622 12.2273 156.244 11.242 156.188 10.1866C156.132 9.13129 157.262 7.19805 157.701 7.46422C158.126 7.75049 158.477 8.13247 158.727 8.57939C158.976 9.0263 159.118 9.52566 159.139 10.0372Z" fill="#758800"/>
<path d="M115.782 36.6995C115.782 37.6661 114.666 39.5433 114.278 39.2958C113.82 39.0104 113.445 38.6104 113.19 38.1353C112.934 37.6603 112.807 37.1267 112.821 36.5874C112.821 35.5741 113.83 33.893 114.357 33.9444C114.885 33.9958 115.8 35.7796 115.782 36.6995Z" fill="#758800"/>
<path d="M59.2085 48.9203C59.2085 47.6128 59.4607 47.5194 60.6701 48.0331C62.1317 48.6775 62.7294 49.8449 62.8929 51.3532C62.9676 52.035 62.7388 52.1984 62.0944 52.1564C61.2841 52.1058 60.5265 51.7376 59.9861 51.1317C59.4458 50.5257 59.1663 49.7311 59.2085 48.9203Z" fill="#758800"/>
<path d="M66.3252 34.3165C66.3252 32.9156 66.5913 32.7382 67.8288 33.3312C69.2624 34.0177 69.8695 35.1991 70.0282 36.7121C70.1029 37.4312 69.8134 37.5246 69.1924 37.4545C68.4055 37.393 67.6714 37.0345 67.139 36.4518C66.6066 35.8691 66.3157 35.1058 66.3252 34.3165Z" fill="#758800"/>
<path d="M87.2777 44.821C87.3524 45.3533 87.1189 45.4794 86.6053 45.4701C84.658 45.4374 83.047 43.238 83.64 41.4215C83.8175 40.8845 84.107 40.9218 84.5366 41.0572C85.3352 41.3102 86.0319 41.8119 86.5251 42.4891C87.0183 43.1662 87.282 43.9833 87.2777 44.821Z" fill="#758800"/>
<path d="M114.679 64.1039C114.553 65.1359 114.184 66.1632 113.166 66.7049C112.751 66.929 111.607 64.837 111.714 63.9031C111.836 62.8571 112.218 61.8718 113.19 61.3628C113.577 61.1667 114.675 63.1326 114.679 64.1039Z" fill="#758800"/>
<path d="M152.499 4.75738C153.358 4.58927 153.484 5.02822 153.288 5.83607C153.138 6.55295 152.765 7.20394 152.223 7.69557C151.68 8.18721 150.995 8.49421 150.267 8.57249C149.44 8.6799 149.095 8.46509 149.23 7.56384C149.321 6.77034 149.709 6.04048 150.315 5.52017C150.921 4.99987 151.701 4.72745 152.499 4.75738Z" fill="#758800"/>
<path d="M115.734 68.7123C115.786 67.4328 116.514 66.7137 117.56 66.2467C117.892 66.0973 118.205 66.0412 118.391 66.4989C118.788 67.4748 119.059 68.4461 118.354 69.4034C117.887 70.0058 117.28 70.6782 116.612 70.5241C115.86 70.3467 115.907 69.3614 115.734 68.7123Z" fill="#758800"/>
<path d="M96.5652 49.9174C96.3411 50.3843 96.822 51.3183 95.8087 51.4163C94.674 51.5237 93.4085 50.1042 93.5159 48.8714C93.5673 48.2456 93.4459 47.3771 94.3051 47.1996C95.2344 47.0082 96.5652 48.6099 96.5652 49.9174Z" fill="#758800"/>
<path d="M112.881 47.5061C112.54 47.9404 113.199 49.0378 112.05 49.0938C110.901 49.1498 109.776 47.8563 109.809 46.6376C109.809 45.9558 109.72 45.0359 110.635 44.8911C111.551 44.7463 112.858 46.2827 112.881 47.5061Z" fill="#758800"/>
<path d="M136.445 3.8504C136.067 4.24265 136.772 5.39139 135.511 5.3587C134.903 5.29064 134.344 4.99438 133.946 4.52978C133.548 4.06517 133.341 3.46687 133.367 2.85576C133.409 2.22068 133.213 1.24005 134.236 1.21203C135.366 1.18402 136.449 2.54756 136.445 3.8504Z" fill="#758800"/>
<path d="M79.8204 39.4153C79.6149 39.8822 79.9931 40.7461 79.0639 40.8162C77.9478 40.9189 76.6777 39.476 76.7991 38.2152C76.8598 37.6128 76.659 36.6882 77.6396 36.6135C78.7137 36.5528 79.8764 38.0657 79.8204 39.4153Z" fill="#758800"/>
<path d="M165.989 64.9795C165.751 65.4091 166.256 66.3804 165.182 66.4364C164.108 66.4925 162.847 65.1523 162.926 63.9615C162.973 63.3078 162.777 62.3271 163.767 62.1917C164.757 62.0563 166.003 63.6206 165.989 64.9795Z" fill="#758800"/>
<path d="M164.159 58.624L164.435 58.6661C164.299 58.8575 164.267 58.6147 164.178 58.6053L164.159 58.624Z" fill="#758800"/>
<path d="M108.926 35.9478L108.73 35.6583L108.847 35.6116C108.847 35.7284 108.884 35.8498 108.898 35.9665L108.926 35.9478Z" fill="#758800"/>
<path d="M107.148 48.3121L107.119 48.2786L107.152 48.3217L107.148 48.3121Z" fill="#758800"/>
<path d="M129.841 80.8634C129.286 85.8506 129.374 90.2588 133.11 93.6209C137.042 97.1512 141.049 100.593 145.046 104.067C148.417 107 151.686 110.025 154.054 113.873C155.559 116.233 156.444 118.935 156.627 121.728C155.764 121.764 154.901 121.753 154.04 121.695C153.874 121.639 153.724 121.543 153.604 121.416C153.483 121.289 153.396 121.135 153.349 120.966C152.639 116.563 150.08 113.252 146.988 110.301C144.556 107.966 141.941 105.813 139.396 103.591C136.23 100.826 133.05 98.0758 129.79 95.246C129.72 95.5534 129.674 95.8655 129.65 96.1799C129.65 98.4353 129.692 100.691 129.65 102.942C129.594 103.704 129.718 104.468 130.012 105.173C130.307 105.878 130.764 106.504 131.345 107C133.213 108.583 135.156 110.072 137.061 111.608C139.863 113.883 142.099 116.544 142.73 120.252C142.8 120.668 142.818 121.097 142.87 121.63H139.746C138.961 115.802 133.923 113.602 129.813 110.138C129.743 110.801 129.664 111.202 129.659 111.599C129.659 114.345 129.659 117.086 129.659 119.832C129.659 121.83 129.659 121.83 127.605 121.7C127.315 121.676 127.03 121.625 126.549 121.564V110.511C126.26 110.418 126.124 110.334 126.082 110.362C123.458 112.542 120.787 114.667 118.261 116.951C117.546 117.6 117.135 118.674 116.79 119.626C115.968 121.896 115.856 121.998 113.32 121.466C113.411 118.808 114.48 116.277 116.323 114.359C117.858 112.779 119.516 111.324 121.282 110.007C126.484 106.056 126.507 106.089 126.507 99.5327V94.9191C126.218 95.0662 125.938 95.2331 125.671 95.4187C122.038 98.6268 118.387 101.812 114.8 105.071C112.12 107.504 109.43 109.941 106.932 112.542C104.539 115.003 103.004 118.17 102.557 121.574H99.6241C99.6315 119.515 100.145 117.49 101.118 115.676C103.182 111.445 106.446 108.204 109.925 105.15C113.32 102.185 116.808 99.3319 120.236 96.3994C121.091 95.6709 121.875 94.8584 122.669 94.0645C125.312 91.4168 126.974 88.3862 126.526 84.473C126.465 83.3018 126.465 82.1281 126.526 80.9568C126.148 81.1296 125.933 81.1576 125.835 81.279C121.67 86.3643 116.454 90.2961 111.359 94.3541C106.054 98.6221 100.661 102.801 96.2526 108.055C92.9838 111.954 90.5509 116.25 90.182 121.546H87.1514C87.2961 120.378 87.3568 119.271 87.5763 118.193C88.669 112.879 91.4428 108.386 95.2019 104.674C99.5774 100.341 104.322 96.376 108.959 92.3181C112.793 88.9606 116.785 85.7805 120.558 82.3764C124.569 78.748 127.264 74.4379 126.517 68.6802C126.4 67.8023 126.689 67.354 127.703 67.312C129.65 67.2373 129.813 67.1953 129.622 69.1799C129.155 73.9149 130.915 77.8001 134.24 80.9241C138.233 84.6598 142.468 88.1621 146.582 91.7857C151.322 95.9604 156.188 100.004 160.717 104.394C164.313 107.776 166.918 112.076 168.249 116.829C168.656 118.328 168.829 119.883 169.141 121.592H165.873C165.149 113.313 160.026 107.663 154.297 102.447C150.855 99.3226 147.18 96.4554 143.556 93.5182C138.803 89.6891 133.969 85.916 129.841 80.8634Z" fill="#B5A642"/>
<path d="M128.571 68.9208C128.455 67.1276 128.361 65.2784 128.861 63.532C129.281 62.0884 130.145 60.814 131.331 59.8896C133.759 57.9517 137.023 57.2839 140.012 56.7983C143.864 56.1748 147.774 55.9915 151.668 56.2519C153.666 56.3827 155.637 56.6582 157.612 56.9711C159.51 57.3113 161.426 57.5452 163.351 57.6715C166.965 57.835 170.855 57.1065 173.531 54.4962C173.942 54.0992 173.316 53.4782 172.91 53.8751C170.505 56.2099 167.021 56.8917 163.776 56.803C161.786 56.7066 159.805 56.4788 157.845 56.1212C155.889 55.813 153.932 55.5328 151.952 55.3881C147.984 55.1105 143.997 55.2828 140.068 55.9017C136.991 56.3687 133.699 57.0645 131.135 58.9463C129.762 59.918 128.721 61.2893 128.156 62.8735C127.483 64.8068 127.567 66.9081 127.689 68.9441C127.726 69.5045 128.623 69.5091 128.571 68.9441V68.9208Z" fill="#B5A642"/>
<path d="M128.058 67.4827C128.731 64.5002 128.28 61.3743 126.792 58.7034C125.304 56.0324 122.884 54.0041 119.993 53.0067C117.813 52.2455 115.408 52.0728 113.115 52.0728C108.333 52.0401 103.612 52.9086 98.8726 53.4036C96.5266 53.6424 94.1701 53.7624 91.812 53.7632C89.4772 53.7632 87.1423 53.7632 84.8542 54.2768C81.3847 55.0427 77.7003 57.4522 77.0092 61.1833C76.9275 61.6142 76.8899 62.0523 76.8971 62.4908C76.9289 62.5825 76.9884 62.6621 77.0675 62.7184C77.1466 62.7748 77.2413 62.805 77.3384 62.805C77.4355 62.805 77.5302 62.7748 77.6093 62.7184C77.6883 62.6621 77.7479 62.5825 77.7797 62.4908C77.733 58.9185 80.9877 56.2801 84.1584 55.3649C86.2948 54.8294 88.4944 54.589 90.696 54.6504C92.9327 54.6504 95.1555 54.6224 97.3829 54.4309C101.884 54.0387 106.344 53.2122 110.86 53.002C115.006 52.8152 119.512 52.96 122.945 55.5797C124.684 56.9248 126.007 58.7353 126.76 60.8015C127.513 62.8676 127.665 65.1048 127.199 67.2539C127.077 67.8095 127.927 68.043 128.049 67.492L128.058 67.4827Z" fill="#B5A642"/>
<path d="M127.498 68.0379L127.428 61.2809C127.439 60.1886 127.38 59.0968 127.25 58.0121C127.09 56.997 126.799 56.0067 126.386 55.0655C124.869 51.4979 122.716 47.949 119.788 45.3666C118.412 44.1359 116.832 43.1546 115.119 42.4668C113.195 41.7056 111.168 41.5329 109.123 41.4675C106.968 41.4038 104.826 41.119 102.73 40.6176C100.671 40.1133 98.6486 39.4502 96.6594 38.7777C95.5706 38.4509 94.5213 38.0046 93.5307 37.4469C92.6634 36.9089 91.8772 36.2501 91.1958 35.4903C89.8183 34.0007 88.6882 32.3009 87.2126 30.9047C86.8017 30.5124 86.176 31.1382 86.5869 31.5258C87.8944 32.7632 88.9217 34.2388 90.1078 35.593C91.259 36.9898 92.7119 38.1074 94.3572 38.8618C96.2729 39.643 98.2347 40.3058 100.232 40.8464C102.234 41.4781 104.289 41.9267 106.372 42.1866C108.52 42.4201 110.71 42.266 112.835 42.7049C114.622 43.0917 116.31 43.842 117.794 44.909C120.97 47.1365 123.15 50.4659 124.864 53.8841C125.401 54.8915 125.834 55.9507 126.158 57.0455C126.432 58.2016 126.561 59.3876 126.541 60.5758C126.578 63.06 126.597 65.549 126.625 68.0472C126.625 68.1636 126.671 68.2753 126.753 68.3576C126.835 68.4399 126.947 68.4862 127.064 68.4862C127.18 68.4862 127.292 68.4399 127.374 68.3576C127.456 68.2753 127.503 68.1636 127.503 68.0472L127.498 68.0379Z" fill="#B5A642"/>
<path d="M101.805 40.451C100.171 37.5356 99.7176 34.1038 100.54 30.8641C101.306 27.8242 102.875 25.0878 104.14 22.2393C104.878 20.6396 105.422 18.9575 105.76 17.2287C105.854 16.673 105.004 16.4349 104.906 16.9952C104.35 20.1939 102.767 23.0658 101.427 25.975C100.087 28.8842 98.9848 32.0736 99.3117 35.3937C99.4974 37.3278 100.086 39.2016 101.039 40.8946C101.114 40.9629 101.209 41.0051 101.31 41.0148C101.41 41.0246 101.511 41.0014 101.598 40.9487C101.684 40.8961 101.751 40.8168 101.788 40.7228C101.826 40.6288 101.832 40.5252 101.805 40.4276V40.451Z" fill="#B5A642"/>
<path d="M129.767 67.2379C129.16 60.2334 128.633 52.295 133.844 46.7801C136.207 44.2819 139.149 42.2786 142.034 40.4341C144.92 38.5895 147.932 36.8851 150.916 35.1853C154.296 33.3046 157.57 31.239 160.722 28.998C161.189 28.6665 160.722 27.9007 160.255 28.2369C154.554 32.4069 148.18 35.5122 142.212 39.262C139.248 41.0505 136.471 43.1328 133.923 45.4773C132.657 46.6684 131.594 48.0579 130.776 49.5913C129.987 51.1213 129.412 52.7522 129.067 54.4384C128.18 58.6411 128.539 62.9885 128.908 67.2426C128.955 67.803 129.842 67.8076 129.791 67.2426L129.767 67.2379Z" fill="#B5A642"/>
<path d="M128.899 68.0438C128.782 64.0653 128.73 60.1054 128.544 56.1082C128.493 54.33 128.166 52.5705 127.577 50.8922C127.007 49.4072 126.318 47.9705 125.518 46.5961C123.925 43.7943 122.128 41.0392 121.474 37.8405C121.142 35.9481 121.016 34.0256 121.096 32.1061C121.034 30.6013 121.175 29.095 121.516 27.6279C121.703 26.8982 122.065 26.225 122.571 25.6666C123.206 25.0129 124.056 24.7327 124.883 24.3965C125.728 24.1059 126.481 23.5949 127.063 22.9162C127.608 22.2295 127.933 21.3948 127.997 20.5207C128.044 19.9556 127.161 19.9603 127.115 20.5207C127.051 21.2959 126.721 22.0252 126.181 22.5846C125.587 23.1204 124.882 23.5176 124.117 23.7474C123.351 24.0048 122.643 24.4111 122.034 24.9428C121.564 25.4076 121.19 25.9617 120.937 26.5725C120.43 27.9358 120.185 29.382 120.213 30.8359C120.13 32.7047 120.175 34.577 120.348 36.4396C120.545 38.1451 120.996 39.8118 121.684 41.3847C122.346 42.8366 123.091 44.2492 123.916 45.6154C125.555 48.4453 127.208 51.3031 127.554 54.6186C127.782 56.8133 127.754 59.0407 127.82 61.2448L128.016 68.0392C128.048 68.1309 128.107 68.2105 128.186 68.2668C128.265 68.3232 128.36 68.3534 128.457 68.3534C128.554 68.3534 128.649 68.3232 128.728 68.2668C128.807 68.2105 128.867 68.1309 128.899 68.0392V68.0438Z" fill="#B5A642"/>
<path d="M123.112 42.6781C126.965 39.5774 129.183 34.9498 130.35 30.2334C130.708 28.7621 130.992 27.2737 131.2 25.7739C131.284 25.2182 130.435 24.98 130.35 25.5404C129.645 30.4062 128.319 35.3794 125.214 39.3019C124.41 40.3185 123.495 41.2425 122.487 42.057C122.043 42.4119 122.674 43.033 123.112 42.6781Z" fill="#B5A642"/>
<path d="M141.394 40.5476C144.859 41.8738 148.431 43.158 152.172 43.3494C155.466 43.5847 158.744 42.7012 161.474 40.8418C162.916 39.8333 164.159 38.5667 165.14 37.1061C165.462 36.6391 164.673 36.1721 164.378 36.6391C162.714 39.0899 160.281 40.9168 157.463 41.8318C154.194 42.8918 150.664 42.5042 147.381 41.6123C145.436 41.0672 143.521 40.4235 141.642 39.6837C141.114 39.4829 140.885 40.3328 141.408 40.5383L141.394 40.5476Z" fill="#B5A642"/>
</svg>
